<svg xmlns="http://www.w3.org/2000/svg" width="600" height="400"><path d="M283,178L329,162L313,128Z" fill="rgb(109,183,185)" stroke="rgb(109,183,185)" stroke-width="1.51"/><path d="M313,128L285,117L283,178Z" fill="rgb(103,180,182)" stroke="rgb(103,180,182)" stroke-width="1.51"/><path d="M285,117L237,138L283,178Z" fill="rgb(100,179,181)" stroke="rgb(100,179,181)" stroke-width="1.51"/><path d="M329,162L358,115L313,128Z" fill="rgb(108,182,184)" stroke="rgb(108,182,184)" stroke-width="1.51"/><path d="M319,74L274,77L285,117Z" fill="rgb(111,182,186)" stroke="rgb(111,182,186)" stroke-width="1.51"/><path d="M329,162L372,156L358,115Z" fill="rgb(113,184,187)" stroke="rgb(113,184,187)" stroke-width="1.51"/><path d="M380,209L372,156L329,162Z" fill="rgb(121,188,191)" stroke="rgb(121,188,191)" stroke-width="1.51"/><path d="M237,138L227,157L283,178Z" fill="rgb(100,179,181)" stroke="rgb(100,179,181)" stroke-width="1.51"/><path d="M283,178L340,226L329,162Z" fill="rgb(118,186,189)" stroke="rgb(118,186,189)" stroke-width="1.51"/><path d="M209,216L283,233L283,178Z" fill="rgb(114,185,187)" stroke="rgb(114,185,187)" stroke-width="1.51"/><path d="M283,233L340,226L283,178Z" fill="rgb(121,187,191)" stroke="rgb(121,187,191)" stroke-width="1.51"/><path d="M285,117L274,77L237,138Z" fill="rgb(102,179,182)" stroke="rgb(102,179,182)" stroke-width="1.51"/><path d="M319,74L285,117L313,128Z" fill="rgb(109,182,185)" stroke="rgb(109,182,185)" stroke-width="1.51"/><path d="M358,115L319,74L313,128Z" fill="rgb(113,184,187)" stroke="rgb(113,184,187)" stroke-width="1.51"/><path d="M340,226L380,209L329,162Z" fill="rgb(125,189,193)" stroke="rgb(125,189,193)" stroke-width="1.51"/><path d="M283,233L287,263L340,226Z" fill="rgb(128,190,194)" stroke="rgb(128,190,194)" stroke-width="1.51"/><path d="M371,277L407,216L380,209Z" fill="rgb(138,194,199)" stroke="rgb(138,194,199)" stroke-width="1.51"/><path d="M229,261L287,263L283,233Z" fill="rgb(124,189,193)" stroke="rgb(124,189,193)" stroke-width="1.51"/><path d="M274,77L219,81L237,138Z" fill="rgb(102,179,181)" stroke="rgb(102,179,181)" stroke-width="1.51"/><path d="M237,138L166,142L227,157Z" fill="rgb(90,176,177)" stroke="rgb(90,176,177)" stroke-width="1.51"/><path d="M227,157L209,216L283,178Z" fill="rgb(105,181,183)" stroke="rgb(105,181,183)" stroke-width="1.51"/><path d="M180,188L209,216L227,157Z" fill="rgb(100,180,181)" stroke="rgb(100,180,181)" stroke-width="1.51"/><path d="M319,74L272,26L274,77Z" fill="rgb(118,185,189)" stroke="rgb(118,185,189)" stroke-width="1.51"/><path d="M274,77L221,41L219,81Z" fill="rgb(108,182,184)" stroke="rgb(108,182,184)" stroke-width="1.51"/><path d="M358,115L372,59L319,74Z" fill="rgb(121,186,191)" stroke="rgb(121,186,191)" stroke-width="1.51"/><path d="M432,113L372,59L358,115Z" fill="rgb(124,188,192)" stroke="rgb(124,188,192)" stroke-width="1.51"/><path d="M432,113L358,115L372,156Z" fill="rgb(117,186,189)" stroke="rgb(117,186,189)" stroke-width="1.51"/><path d="M380,209L434,161L372,156Z" fill="rgb(127,190,193)" stroke="rgb(127,190,193)" stroke-width="1.51"/><path d="M371,277L380,209L340,226Z" fill="rgb(136,194,198)" stroke="rgb(136,194,198)" stroke-width="1.51"/><path d="M166,142L180,188L227,157Z" fill="rgb(94,177,178)" stroke="rgb(94,177,178)" stroke-width="1.51"/><path d="M287,263L310,280L340,226Z" fill="rgb(132,192,196)" stroke="rgb(132,192,196)" stroke-width="1.51"/><path d="M327,332L310,280L291,336Z" fill="rgb(122,168,201)" stroke="rgb(122,168,201)" stroke-width="1.51"/><path d="M209,216L229,261L283,233Z" fill="rgb(117,186,189)" stroke="rgb(117,186,189)" stroke-width="1.51"/><path d="M180,273L229,261L209,216Z" fill="rgb(115,185,188)" stroke="rgb(115,185,188)" stroke-width="1.51"/><path d="M328,25L272,26L319,74Z" fill="rgb(125,187,192)" stroke="rgb(125,187,192)" stroke-width="1.51"/><path d="M372,59L328,25L319,74Z" fill="rgb(127,188,193)" stroke="rgb(127,188,193)" stroke-width="1.51"/><path d="M407,216L434,161L380,209Z" fill="rgb(130,189,196)" stroke="rgb(130,189,196)" stroke-width="1.51"/><path d="M219,81L166,142L237,138Z" fill="rgb(90,176,177)" stroke="rgb(90,176,177)" stroke-width="1.51"/><path d="M434,161L432,113L372,156Z" fill="rgb(118,183,191)" stroke="rgb(118,183,191)" stroke-width="1.51"/><path d="M272,26L221,41L274,77Z" fill="rgb(115,184,188)" stroke="rgb(115,184,188)" stroke-width="1.51"/><path d="M219,81L162,75L166,142Z" fill="rgb(97,178,180)" stroke="rgb(97,178,180)" stroke-width="1.51"/><path d="M310,280L371,277L340,226Z" fill="rgb(138,194,199)" stroke="rgb(138,194,199)" stroke-width="1.51"/><path d="M372,59L367,20L328,25Z" fill="rgb(133,190,197)" stroke="rgb(133,190,197)" stroke-width="1.51"/><path d="M328,25L277,-19L272,26Z" fill="rgb(129,189,195)" stroke="rgb(129,189,195)" stroke-width="1.51"/><path d="M415,23L367,20L372,59Z" fill="rgb(138,192,199)" stroke="rgb(138,192,199)" stroke-width="1.51"/><path d="M432,113L430,71L372,59Z" fill="rgb(128,186,195)" stroke="rgb(128,186,195)" stroke-width="1.51"/><path d="M180,188L164,236L209,216Z" fill="rgb(108,182,184)" stroke="rgb(108,182,184)" stroke-width="1.51"/><path d="M109,179L164,236L180,188Z" fill="rgb(110,182,186)" stroke="rgb(110,182,186)" stroke-width="1.51"/><path d="M221,41L162,75L219,81Z" fill="rgb(102,179,182)" stroke="rgb(102,179,182)" stroke-width="1.51"/><path d="M166,142L109,179L180,188Z" fill="rgb(103,180,182)" stroke="rgb(103,180,182)" stroke-width="1.51"/><path d="M434,161L484,133L432,113Z" fill="rgb(111,170,192)" stroke="rgb(111,170,192)" stroke-width="1.51"/><path d="M432,113L480,90L430,71Z" fill="rgb(120,174,197)" stroke="rgb(120,174,197)" stroke-width="1.51"/><path d="M407,216L460,178L434,161Z" fill="rgb(125,180,197)" stroke="rgb(125,180,197)" stroke-width="1.51"/><path d="M464,228L460,178L407,216Z" fill="rgb(128,178,200)" stroke="rgb(128,178,200)" stroke-width="1.51"/><path d="M164,236L180,273L209,216Z" fill="rgb(114,185,187)" stroke="rgb(114,185,187)" stroke-width="1.51"/><path d="M291,336L310,280L287,263Z" fill="rgb(126,179,199)" stroke="rgb(126,179,199)" stroke-width="1.51"/><path d="M430,71L415,23L372,59Z" fill="rgb(135,190,199)" stroke="rgb(135,190,199)" stroke-width="1.51"/><path d="M315,-40L277,-19L328,25Z" fill="rgb(134,190,197)" stroke="rgb(134,190,197)" stroke-width="1.51"/><path d="M272,26L212,-22L221,41Z" fill="rgb(120,185,190)" stroke="rgb(120,185,190)" stroke-width="1.51"/><path d="M157,12L135,58L162,75Z" fill="rgb(114,183,187)" stroke="rgb(114,183,187)" stroke-width="1.51"/><path d="M315,-40L328,25L367,20Z" fill="rgb(138,192,199)" stroke="rgb(138,192,199)" stroke-width="1.51"/><path d="M460,257L464,228L407,216Z" fill="rgb(133,181,203)" stroke="rgb(133,181,203)" stroke-width="1.51"/><path d="M310,280L327,332L371,277Z" fill="rgb(131,180,202)" stroke="rgb(131,180,202)" stroke-width="1.51"/><path d="M371,277L432,288L407,216Z" fill="rgb(145,197,204)" stroke="rgb(145,197,204)" stroke-width="1.51"/><path d="M291,336L287,263L229,261Z" fill="rgb(124,180,196)" stroke="rgb(124,180,196)" stroke-width="1.51"/><path d="M207,312L291,336L229,261Z" fill="rgb(115,171,195)" stroke="rgb(115,171,195)" stroke-width="1.51"/><path d="M180,273L207,312L229,261Z" fill="rgb(115,179,191)" stroke="rgb(115,179,191)" stroke-width="1.51"/><path d="M460,178L484,133L434,161Z" fill="rgb(114,169,195)" stroke="rgb(114,169,195)" stroke-width="1.51"/><path d="M430,71L492,16L415,23Z" fill="rgb(132,178,203)" stroke="rgb(132,178,203)" stroke-width="1.51"/><path d="M507,193L484,133L460,178Z" fill="rgb(113,162,197)" stroke="rgb(113,162,197)" stroke-width="1.51"/><path d="M327,332L393,316L371,277Z" fill="rgb(132,175,205)" stroke="rgb(132,175,205)" stroke-width="1.51"/><path d="M393,316L432,288L371,277Z" fill="rgb(141,184,206)" stroke="rgb(141,184,206)" stroke-width="1.51"/><path d="M432,288L460,257L407,216Z" fill="rgb(139,186,204)" stroke="rgb(139,186,204)" stroke-width="1.51"/><path d="M464,228L507,193L460,178Z" fill="rgb(121,167,200)" stroke="rgb(121,167,200)" stroke-width="1.51"/><path d="M162,75L116,108L166,142Z" fill="rgb(101,179,181)" stroke="rgb(101,179,181)" stroke-width="1.51"/><path d="M135,58L116,108L162,75Z" fill="rgb(109,181,185)" stroke="rgb(109,181,185)" stroke-width="1.51"/><path d="M484,133L480,90L432,113Z" fill="rgb(112,166,195)" stroke="rgb(112,166,195)" stroke-width="1.51"/><path d="M157,12L162,75L221,41Z" fill="rgb(111,182,186)" stroke="rgb(111,182,186)" stroke-width="1.51"/><path d="M116,108L109,179L166,142Z" fill="rgb(99,179,181)" stroke="rgb(99,179,181)" stroke-width="1.51"/><path d="M164,236L133,284L180,273Z" fill="rgb(123,188,192)" stroke="rgb(123,188,192)" stroke-width="1.51"/><path d="M180,273L174,336L207,312Z" fill="rgb(111,167,194)" stroke="rgb(111,167,194)" stroke-width="1.51"/><path d="M277,-19L212,-22L272,26Z" fill="rgb(126,187,193)" stroke="rgb(126,187,193)" stroke-width="1.51"/><path d="M385,-41L315,-40L367,20Z" fill="rgb(141,193,200)" stroke="rgb(141,193,200)" stroke-width="1.51"/><path d="M273,-66L212,-22L277,-19Z" fill="rgb(126,187,193)" stroke="rgb(126,187,193)" stroke-width="1.51"/><path d="M212,-22L157,12L221,41Z" fill="rgb(116,183,188)" stroke="rgb(116,183,188)" stroke-width="1.51"/><path d="M109,179L107,223L164,236Z" fill="rgb(117,184,189)" stroke="rgb(117,184,189)" stroke-width="1.51"/><path d="M393,316L419,326L432,288Z" fill="rgb(135,171,208)" stroke="rgb(135,171,208)" stroke-width="1.51"/><path d="M479,343L524,262L460,257Z" fill="rgb(128,159,210)" stroke="rgb(128,159,210)" stroke-width="1.51"/><path d="M413,368L419,326L393,316Z" fill="rgb(129,161,209)" stroke="rgb(129,161,209)" stroke-width="1.51"/><path d="M361,373L393,316L327,332Z" fill="rgb(124,159,207)" stroke="rgb(124,159,207)" stroke-width="1.51"/><path d="M510,215L464,228L524,262Z" fill="rgb(124,162,205)" stroke="rgb(124,162,205)" stroke-width="1.51"/><path d="M510,215L507,193L464,228Z" fill="rgb(120,162,203)" stroke="rgb(120,162,203)" stroke-width="1.51"/><path d="M484,133L512,90L480,90Z" fill="rgb(110,158,197)" stroke="rgb(110,158,197)" stroke-width="1.51"/><path d="M107,223L133,284L164,236Z" fill="rgb(123,187,192)" stroke="rgb(123,187,192)" stroke-width="1.51"/><path d="M415,23L385,-41L367,20Z" fill="rgb(146,195,203)" stroke="rgb(146,195,203)" stroke-width="1.51"/><path d="M428,-37L385,-41L415,23Z" fill="rgb(146,192,205)" stroke="rgb(146,192,205)" stroke-width="1.51"/><path d="M524,262L464,228L460,257Z" fill="rgb(130,169,206)" stroke="rgb(130,169,206)" stroke-width="1.51"/><path d="M157,12L111,9L135,58Z" fill="rgb(122,185,191)" stroke="rgb(122,185,191)" stroke-width="1.51"/><path d="M212,-22L165,-19L157,12Z" fill="rgb(121,185,191)" stroke="rgb(121,185,191)" stroke-width="1.51"/><path d="M164,-73L165,-19L212,-22Z" fill="rgb(121,185,191)" stroke="rgb(121,185,191)" stroke-width="1.51"/><path d="M480,90L492,16L430,71Z" fill="rgb(124,170,201)" stroke="rgb(124,170,201)" stroke-width="1.51"/><path d="M525,126L512,90L484,133Z" fill="rgb(104,152,197)" stroke="rgb(104,152,197)" stroke-width="1.51"/><path d="M525,126L484,133L507,193Z" fill="rgb(105,153,196)" stroke="rgb(105,153,196)" stroke-width="1.51"/><path d="M207,312L262,376L291,336Z" fill="rgb(107,153,199)" stroke="rgb(107,153,199)" stroke-width="1.51"/><path d="M133,284L174,336L180,273Z" fill="rgb(116,173,195)" stroke="rgb(116,173,195)" stroke-width="1.51"/><path d="M315,-40L273,-66L277,-19Z" fill="rgb(131,189,196)" stroke="rgb(131,189,196)" stroke-width="1.51"/><path d="M327,-74L273,-66L315,-40Z" fill="rgb(133,190,197)" stroke="rgb(133,190,197)" stroke-width="1.51"/><path d="M385,-41L363,-61L315,-40Z" fill="rgb(141,193,200)" stroke="rgb(141,193,200)" stroke-width="1.51"/><path d="M223,386L262,376L207,312Z" fill="rgb(99,144,198)" stroke="rgb(99,144,198)" stroke-width="1.51"/><path d="M335,392L361,373L327,332Z" fill="rgb(113,146,206)" stroke="rgb(113,146,206)" stroke-width="1.51"/><path d="M562,175L525,126L507,193Z" fill="rgb(102,147,199)" stroke="rgb(102,147,199)" stroke-width="1.51"/><path d="M335,392L327,332L291,336Z" fill="rgb(113,151,204)" stroke="rgb(113,151,204)" stroke-width="1.51"/><path d="M107,223L83,234L133,284Z" fill="rgb(127,188,194)" stroke="rgb(127,188,194)" stroke-width="1.51"/><path d="M109,179L83,234L107,223Z" fill="rgb(121,186,190)" stroke="rgb(121,186,190)" stroke-width="1.51"/><path d="M116,108L73,161L109,179Z" fill="rgb(106,181,183)" stroke="rgb(106,181,183)" stroke-width="1.51"/><path d="M58,113L73,161L116,108Z" fill="rgb(106,180,184)" stroke="rgb(106,180,184)" stroke-width="1.51"/><path d="M58,113L116,108L61,62Z" fill="rgb(115,183,188)" stroke="rgb(115,183,188)" stroke-width="1.51"/><path d="M385,-41L424,-74L363,-61Z" fill="rgb(146,195,204)" stroke="rgb(146,195,204)" stroke-width="1.51"/><path d="M492,16L428,-37L415,23Z" fill="rgb(140,180,207)" stroke="rgb(140,180,207)" stroke-width="1.51"/><path d="M363,-61L327,-74L315,-40Z" fill="rgb(138,192,199)" stroke="rgb(138,192,199)" stroke-width="1.51"/><path d="M73,161L83,234L109,179Z" fill="rgb(118,185,189)" stroke="rgb(118,185,189)" stroke-width="1.51"/><path d="M133,284L111,321L174,336Z" fill="rgb(116,166,198)" stroke="rgb(116,166,198)" stroke-width="1.51"/><path d="M512,90L492,16L480,90Z" fill="rgb(118,160,202)" stroke="rgb(118,160,202)" stroke-width="1.51"/><path d="M513,16L492,16L512,90Z" fill="rgb(121,158,204)" stroke="rgb(121,158,204)" stroke-width="1.51"/><path d="M117,-8L111,9L157,12Z" fill="rgb(127,187,194)" stroke="rgb(127,187,194)" stroke-width="1.51"/><path d="M262,376L335,392L291,336Z" fill="rgb(106,143,203)" stroke="rgb(106,143,203)" stroke-width="1.51"/><path d="M361,373L413,368L393,316Z" fill="rgb(124,155,209)" stroke="rgb(124,155,209)" stroke-width="1.51"/><path d="M479,343L460,257L432,288Z" fill="rgb(131,164,209)" stroke="rgb(131,164,209)" stroke-width="1.51"/><path d="M361,414L413,368L361,373Z" fill="rgb(112,139,211)" stroke="rgb(112,139,211)" stroke-width="1.51"/><path d="M322,427L361,414L335,392Z" fill="rgb(101,130,208)" stroke="rgb(101,130,208)" stroke-width="1.51"/><path d="M174,336L223,386L207,312Z" fill="rgb(98,149,195)" stroke="rgb(98,149,195)" stroke-width="1.51"/><path d="M165,-19L117,-8L157,12Z" fill="rgb(126,186,193)" stroke="rgb(126,186,193)" stroke-width="1.51"/><path d="M142,-66L117,-8L165,-19Z" fill="rgb(127,187,193)" stroke="rgb(127,187,193)" stroke-width="1.51"/><path d="M61,62L135,58L59,36Z" fill="rgb(123,185,192)" stroke="rgb(123,185,192)" stroke-width="1.51"/><path d="M61,62L116,108L135,58Z" fill="rgb(116,183,188)" stroke="rgb(116,183,188)" stroke-width="1.51"/><path d="M42,237L77,286L83,234Z" fill="rgb(135,191,197)" stroke="rgb(135,191,197)" stroke-width="1.51"/><path d="M479,343L432,288L419,326Z" fill="rgb(127,158,210)" stroke="rgb(127,158,210)" stroke-width="1.51"/><path d="M510,215L562,175L507,193Z" fill="rgb(110,151,202)" stroke="rgb(110,151,202)" stroke-width="1.51"/><path d="M273,-66L220,-83L212,-22Z" fill="rgb(123,186,192)" stroke="rgb(123,186,192)" stroke-width="1.51"/><path d="M327,-74L220,-83L273,-66Z" fill="rgb(129,188,195)" stroke="rgb(129,188,195)" stroke-width="1.51"/><path d="M77,286L111,321L133,284Z" fill="rgb(125,176,199)" stroke="rgb(125,176,199)" stroke-width="1.51"/><path d="M174,336L168,392L223,386Z" fill="rgb(91,136,198)" stroke="rgb(91,136,198)" stroke-width="1.51"/><path d="M492,16L478,-36L428,-37Z" fill="rgb(137,174,207)" stroke="rgb(137,174,207)" stroke-width="1.51"/><path d="M563,88L513,16L512,90Z" fill="rgb(112,149,203)" stroke="rgb(112,149,203)" stroke-width="1.51"/><path d="M59,36L135,58L111,9Z" fill="rgb(125,186,192)" stroke="rgb(125,186,192)" stroke-width="1.51"/><path d="M42,237L83,234L73,161Z" fill="rgb(125,188,193)" stroke="rgb(125,188,193)" stroke-width="1.51"/><path d="M83,234L77,286L133,284Z" fill="rgb(133,190,197)" stroke="rgb(133,190,197)" stroke-width="1.51"/><path d="M413,368L479,343L419,326Z" fill="rgb(121,147,211)" stroke="rgb(121,147,211)" stroke-width="1.51"/><path d="M363,-61L424,-74L327,-74Z" fill="rgb(143,194,202)" stroke="rgb(143,194,202)" stroke-width="1.51"/><path d="M327,-74L474,-91L220,-83Z" fill="rgb(139,192,199)" stroke="rgb(139,192,199)" stroke-width="1.51"/><path d="M428,-37L424,-74L385,-41Z" fill="rgb(145,191,205)" stroke="rgb(145,191,205)" stroke-width="1.51"/><path d="M478,-36L424,-74L428,-37Z" fill="rgb(140,181,206)" stroke="rgb(140,181,206)" stroke-width="1.51"/><path d="M530,-20L478,-36L492,16Z" fill="rgb(131,163,209)" stroke="rgb(131,163,209)" stroke-width="1.51"/><path d="M577,237L562,175L510,215Z" fill="rgb(109,144,204)" stroke="rgb(109,144,204)" stroke-width="1.51"/><path d="M525,126L563,88L512,90Z" fill="rgb(102,146,199)" stroke="rgb(102,146,199)" stroke-width="1.51"/><path d="M220,-83L164,-73L212,-22Z" fill="rgb(118,184,189)" stroke="rgb(118,184,189)" stroke-width="1.51"/><path d="M34,11L59,36L111,9Z" fill="rgb(133,189,197)" stroke="rgb(133,189,197)" stroke-width="1.51"/><path d="M513,368L519,340L479,343Z" fill="rgb(103,123,214)" stroke="rgb(103,123,214)" stroke-width="1.51"/><path d="M335,392L361,414L361,373Z" fill="rgb(105,134,209)" stroke="rgb(105,134,209)" stroke-width="1.51"/><path d="M322,427L335,392L288,436Z" fill="rgb(97,129,207)" stroke="rgb(97,129,207)" stroke-width="1.51"/><path d="M82,-42L111,9L117,-8Z" fill="rgb(132,188,196)" stroke="rgb(132,188,196)" stroke-width="1.51"/><path d="M13,74L21,137L58,113Z" fill="rgb(119,184,189)" stroke="rgb(119,184,189)" stroke-width="1.51"/><path d="M82,384L125,359L111,321Z" fill="rgb(109,147,203)" stroke="rgb(109,147,203)" stroke-width="1.51"/><path d="M111,321L125,359L174,336Z" fill="rgb(109,154,199)" stroke="rgb(109,154,199)" stroke-width="1.51"/><path d="M581,138L563,88L525,126Z" fill="rgb(93,137,198)" stroke="rgb(93,137,198)" stroke-width="1.51"/><path d="M513,16L530,-20L492,16Z" fill="rgb(127,158,209)" stroke="rgb(127,158,209)" stroke-width="1.51"/><path d="M18,168L42,237L73,161Z" fill="rgb(123,187,192)" stroke="rgb(123,187,192)" stroke-width="1.51"/><path d="M77,286L72,312L111,321Z" fill="rgb(126,172,201)" stroke="rgb(126,172,201)" stroke-width="1.51"/><path d="M21,137L73,161L58,113Z" fill="rgb(111,182,186)" stroke="rgb(111,182,186)" stroke-width="1.51"/><path d="M164,-73L142,-66L165,-19Z" fill="rgb(124,186,192)" stroke="rgb(124,186,192)" stroke-width="1.51"/><path d="M288,436L335,392L262,376Z" fill="rgb(94,127,205)" stroke="rgb(94,127,205)" stroke-width="1.51"/><path d="M125,359L168,392L174,336Z" fill="rgb(100,142,199)" stroke="rgb(100,142,199)" stroke-width="1.51"/><path d="M238,429L262,376L223,386Z" fill="rgb(87,126,201)" stroke="rgb(87,126,201)" stroke-width="1.51"/><path d="M27,282L72,312L77,286Z" fill="rgb(133,180,202)" stroke="rgb(133,180,202)" stroke-width="1.51"/><path d="M13,74L58,113L61,62Z" fill="rgb(122,185,192)" stroke="rgb(122,185,192)" stroke-width="1.51"/><path d="M606,191L581,138L562,175Z" fill="rgb(92,131,201)" stroke="rgb(92,131,201)" stroke-width="1.51"/><path d="M562,175L581,138L525,126Z" fill="rgb(93,137,198)" stroke="rgb(93,137,198)" stroke-width="1.51"/><path d="M168,442L238,429L223,386Z" fill="rgb(80,123,199)" stroke="rgb(80,123,199)" stroke-width="1.51"/><path d="M238,429L288,436L262,376Z" fill="rgb(89,126,203)" stroke="rgb(89,126,203)" stroke-width="1.51"/><path d="M21,137L18,168L73,161Z" fill="rgb(117,184,189)" stroke="rgb(117,184,189)" stroke-width="1.51"/><path d="M524,262L577,237L510,215Z" fill="rgb(118,151,208)" stroke="rgb(118,151,208)" stroke-width="1.51"/><path d="M479,343L519,340L524,262Z" fill="rgb(115,139,213)" stroke="rgb(115,139,213)" stroke-width="1.51"/><path d="M473,385L479,343L413,368Z" fill="rgb(110,132,213)" stroke="rgb(110,132,213)" stroke-width="1.51"/><path d="M466,407L473,385L413,368Z" fill="rgb(103,123,214)" stroke="rgb(103,123,214)" stroke-width="1.51"/><path d="M432,424L413,368L361,414Z" fill="rgb(110,132,213)" stroke="rgb(110,132,213)" stroke-width="1.51"/><path d="M581,8L513,16L563,88Z" fill="rgb(112,144,207)" stroke="rgb(112,144,207)" stroke-width="1.51"/><path d="M581,8L530,-20L513,16Z" fill="rgb(122,149,211)" stroke="rgb(122,149,211)" stroke-width="1.51"/><path d="M478,-36L474,-91L424,-74Z" fill="rgb(138,176,207)" stroke="rgb(138,176,207)" stroke-width="1.51"/><path d="M572,268L577,237L524,262Z" fill="rgb(117,145,211)" stroke="rgb(117,145,211)" stroke-width="1.51"/><path d="M59,36L13,74L61,62Z" fill="rgb(128,187,194)" stroke="rgb(128,187,194)" stroke-width="1.51"/><path d="M142,-66L82,-42L117,-8Z" fill="rgb(131,188,195)" stroke="rgb(131,188,195)" stroke-width="1.51"/><path d="M557,338L572,268L524,262Z" fill="rgb(114,138,213)" stroke="rgb(114,138,213)" stroke-width="1.51"/><path d="M21,137L-15,164L18,168Z" fill="rgb(122,185,191)" stroke="rgb(122,185,191)" stroke-width="1.51"/><path d="M34,11L13,74L59,36Z" fill="rgb(134,189,197)" stroke="rgb(134,189,197)" stroke-width="1.51"/><path d="M372,476L361,414L322,427Z" fill="rgb(103,130,209)" stroke="rgb(103,130,209)" stroke-width="1.51"/><path d="M372,476L432,424L361,414Z" fill="rgb(109,132,212)" stroke="rgb(109,132,212)" stroke-width="1.51"/><path d="M424,-74L474,-91L327,-74Z" fill="rgb(146,192,205)" stroke="rgb(146,192,205)" stroke-width="1.51"/><path d="M509,-81L474,-91L478,-36Z" fill="rgb(133,167,208)" stroke="rgb(133,167,208)" stroke-width="1.51"/><path d="M519,340L557,338L524,262Z" fill="rgb(109,132,213)" stroke="rgb(109,132,213)" stroke-width="1.51"/><path d="M473,385L513,368L479,343Z" fill="rgb(101,121,214)" stroke="rgb(101,121,214)" stroke-width="1.51"/><path d="M466,407L513,368L473,385Z" fill="rgb(93,112,215)" stroke="rgb(93,112,215)" stroke-width="1.51"/><path d="M432,424L466,407L413,368Z" fill="rgb(101,121,214)" stroke="rgb(101,121,214)" stroke-width="1.51"/><path d="M125,425L168,392L125,359Z" fill="rgb(92,129,202)" stroke="rgb(92,129,202)" stroke-width="1.51"/><path d="M42,237L27,282L77,286Z" fill="rgb(140,192,200)" stroke="rgb(140,192,200)" stroke-width="1.51"/><path d="M-23,290L27,282L-43,241Z" fill="rgb(146,194,204)" stroke="rgb(146,194,204)" stroke-width="1.51"/><path d="M82,-42L34,11L111,9Z" fill="rgb(136,190,198)" stroke="rgb(136,190,198)" stroke-width="1.51"/><path d="M577,237L606,191L562,175Z" fill="rgb(100,133,205)" stroke="rgb(100,133,205)" stroke-width="1.51"/><path d="M581,138L607,121L563,88Z" fill="rgb(87,129,200)" stroke="rgb(87,129,200)" stroke-width="1.51"/><path d="M622,222L606,191L577,237Z" fill="rgb(99,129,207)" stroke="rgb(99,129,207)" stroke-width="1.51"/><path d="M606,191L607,121L581,138Z" fill="rgb(83,124,200)" stroke="rgb(83,124,200)" stroke-width="1.51"/><path d="M530,-20L509,-81L478,-36Z" fill="rgb(130,161,209)" stroke="rgb(130,161,209)" stroke-width="1.51"/><path d="M560,-32L509,-81L530,-20Z" fill="rgb(124,152,210)" stroke="rgb(124,152,210)" stroke-width="1.51"/><path d="M606,283L622,222L577,237Z" fill="rgb(106,131,211)" stroke="rgb(106,131,211)" stroke-width="1.51"/><path d="M513,368L557,338L519,340Z" fill="rgb(96,116,215)" stroke="rgb(96,116,215)" stroke-width="1.51"/><path d="M566,385L557,338L513,368Z" fill="rgb(84,104,216)" stroke="rgb(84,104,216)" stroke-width="1.51"/><path d="M18,168L-43,241L42,237Z" fill="rgb(135,191,198)" stroke="rgb(135,191,198)" stroke-width="1.51"/><path d="M-19,138L-15,164L21,137Z" fill="rgb(121,185,191)" stroke="rgb(121,185,191)" stroke-width="1.51"/><path d="M626,42L581,8L563,88Z" fill="rgb(102,131,208)" stroke="rgb(102,131,208)" stroke-width="1.51"/><path d="M238,429L258,475L288,436Z" fill="rgb(89,125,203)" stroke="rgb(89,125,203)" stroke-width="1.51"/><path d="M168,392L168,442L223,386Z" fill="rgb(81,123,199)" stroke="rgb(81,123,199)" stroke-width="1.51"/><path d="M125,425L168,442L168,392Z" fill="rgb(86,124,202)" stroke="rgb(86,124,202)" stroke-width="1.51"/><path d="M82,384L111,321L72,312Z" fill="rgb(117,156,203)" stroke="rgb(117,156,203)" stroke-width="1.51"/><path d="M13,74L-9,88L21,137Z" fill="rgb(124,186,192)" stroke="rgb(124,186,192)" stroke-width="1.51"/><path d="M-35,17L-9,88L13,74Z" fill="rgb(134,189,197)" stroke="rgb(134,189,197)" stroke-width="1.51"/><path d="M34,338L82,384L72,312Z" fill="rgb(119,154,205)" stroke="rgb(119,154,205)" stroke-width="1.51"/><path d="M581,8L560,-32L530,-20Z" fill="rgb(120,144,211)" stroke="rgb(120,144,211)" stroke-width="1.51"/><path d="M-9,88L-19,138L21,137Z" fill="rgb(121,185,191)" stroke="rgb(121,185,191)" stroke-width="1.51"/><path d="M82,384L125,425L125,359Z" fill="rgb(97,131,204)" stroke="rgb(97,131,204)" stroke-width="1.51"/><path d="M321,488L372,476L322,427Z" fill="rgb(101,130,208)" stroke="rgb(101,130,208)" stroke-width="1.51"/><path d="M241,487L258,475L238,429Z" fill="rgb(86,125,202)" stroke="rgb(86,125,202)" stroke-width="1.51"/><path d="M-17,327L34,338L27,282Z" fill="rgb(134,171,207)" stroke="rgb(134,171,207)" stroke-width="1.51"/><path d="M27,282L34,338L72,312Z" fill="rgb(130,172,204)" stroke="rgb(130,172,204)" stroke-width="1.51"/><path d="M34,11L-35,17L13,74Z" fill="rgb(139,191,200)" stroke="rgb(139,191,200)" stroke-width="1.51"/><path d="M82,-42L14,-42L34,11Z" fill="rgb(141,191,201)" stroke="rgb(141,191,201)" stroke-width="1.51"/><path d="M142,-66L70,-76L82,-42Z" fill="rgb(133,189,197)" stroke="rgb(133,189,197)" stroke-width="1.51"/><path d="M164,-73L70,-76L142,-66Z" fill="rgb(129,187,195)" stroke="rgb(129,187,195)" stroke-width="1.51"/><path d="M220,-83L70,-76L164,-73Z" fill="rgb(125,186,193)" stroke="rgb(125,186,193)" stroke-width="1.51"/><path d="M607,121L619,83L563,88Z" fill="rgb(88,126,202)" stroke="rgb(88,126,202)" stroke-width="1.51"/><path d="M667,109L619,83L607,121Z" fill="rgb(86,124,201)" stroke="rgb(86,124,201)" stroke-width="1.51"/><path d="M669,193L667,109L607,121Z" fill="rgb(80,123,199)" stroke="rgb(80,123,199)" stroke-width="1.51"/><path d="M606,283L577,237L572,268Z" fill="rgb(113,137,212)" stroke="rgb(113,137,212)" stroke-width="1.51"/><path d="M321,488L322,427L288,436Z" fill="rgb(97,128,206)" stroke="rgb(97,128,206)" stroke-width="1.51"/><path d="M432,424L458,467L466,407Z" fill="rgb(96,116,215)" stroke="rgb(96,116,215)" stroke-width="1.51"/><path d="M557,338L606,283L572,268Z" fill="rgb(105,125,214)" stroke="rgb(105,125,214)" stroke-width="1.51"/><path d="M258,475L321,488L288,436Z" fill="rgb(93,127,205)" stroke="rgb(93,127,205)" stroke-width="1.51"/><path d="M168,442L191,473L238,429Z" fill="rgb(78,123,198)" stroke="rgb(78,123,198)" stroke-width="1.51"/><path d="M258,475L241,487L321,488Z" fill="rgb(90,126,204)" stroke="rgb(90,126,204)" stroke-width="1.51"/><path d="M140,471L191,473L168,442Z" fill="rgb(84,124,201)" stroke="rgb(84,124,201)" stroke-width="1.51"/><path d="M191,473L241,487L238,429Z" fill="rgb(82,124,200)" stroke="rgb(82,124,200)" stroke-width="1.51"/><path d="M619,83L626,42L563,88Z" fill="rgb(94,126,205)" stroke="rgb(94,126,205)" stroke-width="1.51"/><path d="M581,8L626,-13L560,-32Z" fill="rgb(112,134,212)" stroke="rgb(112,134,212)" stroke-width="1.51"/><path d="M685,90L626,42L619,83Z" fill="rgb(94,126,205)" stroke="rgb(94,126,205)" stroke-width="1.51"/><path d="M24,384L70,412L82,384Z" fill="rgb(104,131,208)" stroke="rgb(104,131,208)" stroke-width="1.51"/><path d="M82,384L70,412L125,425Z" fill="rgb(96,127,206)" stroke="rgb(96,127,206)" stroke-width="1.51"/><path d="M125,425L140,471L168,442Z" fill="rgb(88,125,202)" stroke="rgb(88,125,202)" stroke-width="1.51"/><path d="M70,-76L14,-42L82,-42Z" fill="rgb(139,191,200)" stroke="rgb(139,191,200)" stroke-width="1.51"/><path d="M-43,241L-15,164L-70,189Z" fill="rgb(132,190,196)" stroke="rgb(132,190,196)" stroke-width="1.51"/><path d="M437,492L458,467L432,424Z" fill="rgb(99,119,214)" stroke="rgb(99,119,214)" stroke-width="1.51"/><path d="M541,432L566,385L513,368Z" fill="rgb(68,91,218)" stroke="rgb(68,91,218)" stroke-width="1.51"/><path d="M557,338L612,321L606,283Z" fill="rgb(93,113,215)" stroke="rgb(93,113,215)" stroke-width="1.51"/><path d="M437,492L432,424L372,476Z" fill="rgb(107,128,213)" stroke="rgb(107,128,213)" stroke-width="1.51"/><path d="M34,338L24,384L82,384Z" fill="rgb(114,144,208)" stroke="rgb(114,144,208)" stroke-width="1.51"/><path d="M-43,241L27,282L42,237Z" fill="rgb(143,194,202)" stroke="rgb(143,194,202)" stroke-width="1.51"/><path d="M-43,241L18,168L-15,164Z" fill="rgb(130,189,195)" stroke="rgb(130,189,195)" stroke-width="1.51"/><path d="M541,432L513,368L466,407Z" fill="rgb(79,99,217)" stroke="rgb(79,99,217)" stroke-width="1.51"/><path d="M566,385L612,321L557,338Z" fill="rgb(81,101,217)" stroke="rgb(81,101,217)" stroke-width="1.51"/><path d="M681,232L669,193L622,222Z" fill="rgb(99,129,207)" stroke="rgb(99,129,207)" stroke-width="1.51"/><path d="M-57,236L-43,241L-70,189Z" fill="rgb(138,192,199)" stroke="rgb(138,192,199)" stroke-width="1.51"/><path d="M-15,164L-19,138L-75,139Z" fill="rgb(121,185,191)" stroke="rgb(121,185,191)" stroke-width="1.51"/><path d="M191,473L73,493L241,487Z" fill="rgb(84,124,201)" stroke="rgb(84,124,201)" stroke-width="1.51"/><path d="M73,493L140,471L125,425Z" fill="rgb(93,126,205)" stroke="rgb(93,126,205)" stroke-width="1.51"/><path d="M474,-91L31,-82L220,-83Z" fill="rgb(124,186,192)" stroke="rgb(124,186,192)" stroke-width="1.51"/><path d="M220,-83L31,-82L70,-76Z" fill="rgb(132,188,196)" stroke="rgb(132,188,196)" stroke-width="1.51"/><path d="M70,-76L31,-82L14,-42Z" fill="rgb(142,191,201)" stroke="rgb(142,191,201)" stroke-width="1.51"/><path d="M70,412L73,493L125,425Z" fill="rgb(96,127,206)" stroke="rgb(96,127,206)" stroke-width="1.51"/><path d="M-17,327L24,384L34,338Z" fill="rgb(124,154,209)" stroke="rgb(124,154,209)" stroke-width="1.51"/><path d="M-23,290L-17,327L27,282Z" fill="rgb(139,179,207)" stroke="rgb(139,179,207)" stroke-width="1.51"/><path d="M-88,317L-17,327L-23,290Z" fill="rgb(137,173,207)" stroke="rgb(137,173,207)" stroke-width="1.51"/><path d="M-21,-15L34,11L14,-42Z" fill="rgb(146,193,203)" stroke="rgb(146,193,203)" stroke-width="1.51"/><path d="M-21,-15L-35,17L34,11Z" fill="rgb(146,192,203)" stroke="rgb(146,192,203)" stroke-width="1.51"/><path d="M-17,-72L-21,-15L14,-42Z" fill="rgb(147,193,204)" stroke="rgb(147,193,204)" stroke-width="1.51"/><path d="M508,462L541,432L466,407Z" fill="rgb(79,100,216)" stroke="rgb(79,100,216)" stroke-width="1.51"/><path d="M321,488L437,492L372,476Z" fill="rgb(106,131,212)" stroke="rgb(106,131,212)" stroke-width="1.51"/><path d="M73,493L437,492L321,488Z" fill="rgb(91,126,204)" stroke="rgb(91,126,204)" stroke-width="1.51"/><path d="M626,42L626,-13L581,8Z" fill="rgb(107,129,211)" stroke="rgb(107,129,211)" stroke-width="1.51"/><path d="M560,-32L587,-84L509,-81Z" fill="rgb(121,146,211)" stroke="rgb(121,146,211)" stroke-width="1.51"/><path d="M-43,241L-74,283L-23,290Z" fill="rgb(146,193,205)" stroke="rgb(146,193,205)" stroke-width="1.51"/><path d="M-70,189L-15,164L-75,139Z" fill="rgb(125,187,193)" stroke="rgb(125,187,193)" stroke-width="1.51"/><path d="M566,385L636,362L612,321Z" fill="rgb(68,90,217)" stroke="rgb(68,90,217)" stroke-width="1.51"/><path d="M508,462L466,407L458,467Z" fill="rgb(89,108,215)" stroke="rgb(89,108,215)" stroke-width="1.51"/><path d="M626,42L659,11L626,-13Z" fill="rgb(107,129,211)" stroke="rgb(107,129,211)" stroke-width="1.51"/><path d="M669,193L607,121L606,191Z" fill="rgb(87,125,202)" stroke="rgb(87,125,202)" stroke-width="1.51"/><path d="M669,193L606,191L622,222Z" fill="rgb(96,128,206)" stroke="rgb(96,128,206)" stroke-width="1.51"/><path d="M681,232L622,222L606,283Z" fill="rgb(106,131,211)" stroke="rgb(106,131,211)" stroke-width="1.51"/><path d="M437,492L508,462L458,467Z" fill="rgb(92,112,216)" stroke="rgb(92,112,216)" stroke-width="1.51"/><path d="M-75,139L-19,138L-70,75Z" fill="rgb(121,185,191)" stroke="rgb(121,185,191)" stroke-width="1.51"/><path d="M626,-67L587,-84L560,-32Z" fill="rgb(112,133,213)" stroke="rgb(112,133,213)" stroke-width="1.51"/><path d="M509,-81L587,-84L474,-91Z" fill="rgb(126,155,210)" stroke="rgb(126,155,210)" stroke-width="1.51"/><path d="M-70,75L-19,138L-9,88Z" fill="rgb(125,186,193)" stroke="rgb(125,186,193)" stroke-width="1.51"/><path d="M-67,8L-70,75L-35,17Z" fill="rgb(140,191,200)" stroke="rgb(140,191,200)" stroke-width="1.51"/><path d="M-35,17L-70,75L-9,88Z" fill="rgb(134,189,197)" stroke="rgb(134,189,197)" stroke-width="1.51"/><path d="M508,462L559,434L541,432Z" fill="rgb(67,90,217)" stroke="rgb(67,90,217)" stroke-width="1.51"/><path d="M541,432L559,434L566,385Z" fill="rgb(57,84,218)" stroke="rgb(57,84,218)" stroke-width="1.51"/><path d="M626,-13L626,-67L560,-32Z" fill="rgb(110,130,213)" stroke="rgb(110,130,213)" stroke-width="1.51"/><path d="M685,90L659,11L626,42Z" fill="rgb(99,127,208)" stroke="rgb(99,127,208)" stroke-width="1.51"/><path d="M669,193L685,90L667,109Z" fill="rgb(79,123,199)" stroke="rgb(79,123,199)" stroke-width="1.51"/><path d="M667,109L685,90L619,83Z" fill="rgb(88,125,202)" stroke="rgb(88,125,202)" stroke-width="1.51"/><path d="M686,285L681,232L606,283Z" fill="rgb(110,133,213)" stroke="rgb(110,133,213)" stroke-width="1.51"/><path d="M656,335L606,283L612,321Z" fill="rgb(91,111,216)" stroke="rgb(91,111,216)" stroke-width="1.51"/><path d="M681,232L685,90L669,193Z" fill="rgb(88,126,202)" stroke="rgb(88,126,202)" stroke-width="1.51"/><path d="M-21,-15L-67,8L-35,17Z" fill="rgb(147,193,203)" stroke="rgb(147,193,203)" stroke-width="1.51"/><path d="M31,-82L-17,-72L14,-42Z" fill="rgb(146,193,203)" stroke="rgb(146,193,203)" stroke-width="1.51"/><path d="M662,-39L626,-67L626,-13Z" fill="rgb(110,130,213)" stroke="rgb(110,130,213)" stroke-width="1.51"/><path d="M-27,410L24,435L24,384Z" fill="rgb(109,130,212)" stroke="rgb(109,130,212)" stroke-width="1.51"/><path d="M24,384L24,435L70,412Z" fill="rgb(104,129,210)" stroke="rgb(104,129,210)" stroke-width="1.51"/><path d="M-31,377L24,384L-17,327Z" fill="rgb(122,148,211)" stroke="rgb(122,148,211)" stroke-width="1.51"/><path d="M641,422L636,362L566,385Z" fill="rgb(37,75,219)" stroke="rgb(37,75,219)" stroke-width="1.51"/><path d="M-70,75L-82,-18L-75,139Z" fill="rgb(133,189,197)" stroke="rgb(133,189,197)" stroke-width="1.51"/><path d="M-82,-18L-67,8L-21,-15Z" fill="rgb(147,193,204)" stroke="rgb(147,193,204)" stroke-width="1.51"/><path d="M-57,236L-74,283L-43,241Z" fill="rgb(144,195,203)" stroke="rgb(144,195,203)" stroke-width="1.51"/><path d="M-70,189L-74,283L-57,236Z" fill="rgb(141,193,200)" stroke="rgb(141,193,200)" stroke-width="1.51"/><path d="M-88,317L-74,283L-70,189Z" fill="rgb(146,195,204)" stroke="rgb(146,195,204)" stroke-width="1.51"/><path d="M636,362L656,335L612,321Z" fill="rgb(78,98,217)" stroke="rgb(78,98,217)" stroke-width="1.51"/><path d="M-93,359L-31,377L-17,327Z" fill="rgb(125,152,210)" stroke="rgb(125,152,210)" stroke-width="1.51"/><path d="M-10,493L29,456L24,435Z" fill="rgb(108,130,212)" stroke="rgb(108,130,212)" stroke-width="1.51"/><path d="M24,435L29,456L70,412Z" fill="rgb(103,129,210)" stroke="rgb(103,129,210)" stroke-width="1.51"/><path d="M140,471L73,493L191,473Z" fill="rgb(89,125,203)" stroke="rgb(89,125,203)" stroke-width="1.51"/><path d="M681,232L686,285L685,90Z" fill="rgb(96,128,206)" stroke="rgb(96,128,206)" stroke-width="1.51"/><path d="M656,335L686,285L606,283Z" fill="rgb(97,116,215)" stroke="rgb(97,116,215)" stroke-width="1.51"/><path d="M241,487L73,493L321,488Z" fill="rgb(80,123,199)" stroke="rgb(80,123,199)" stroke-width="1.51"/><path d="M29,456L73,493L70,412Z" fill="rgb(101,128,209)" stroke="rgb(101,128,209)" stroke-width="1.51"/><path d="M659,11L662,-39L626,-13Z" fill="rgb(110,130,213)" stroke="rgb(110,130,213)" stroke-width="1.51"/><path d="M686,-87L662,-39L659,11Z" fill="rgb(110,130,213)" stroke="rgb(110,130,213)" stroke-width="1.51"/><path d="M29,456L-10,493L73,493Z" fill="rgb(105,129,210)" stroke="rgb(105,129,210)" stroke-width="1.51"/><path d="M-31,377L-27,410L24,384Z" fill="rgb(113,135,212)" stroke="rgb(113,135,212)" stroke-width="1.51"/><path d="M-66,437L-27,410L-31,377Z" fill="rgb(110,130,213)" stroke="rgb(110,130,213)" stroke-width="1.51"/><path d="M-72,-59L-82,-18L-21,-15Z" fill="rgb(147,193,204)" stroke="rgb(147,193,204)" stroke-width="1.51"/><path d="M-67,8L-82,-18L-70,75Z" fill="rgb(143,192,201)" stroke="rgb(143,192,201)" stroke-width="1.51"/><path d="M-75,139L-88,317L-70,189Z" fill="rgb(136,191,198)" stroke="rgb(136,191,198)" stroke-width="1.51"/><path d="M-82,-18L-88,317L-75,139Z" fill="rgb(121,185,191)" stroke="rgb(121,185,191)" stroke-width="1.51"/><path d="M-74,283L-88,317L-23,290Z" fill="rgb(140,180,207)" stroke="rgb(140,180,207)" stroke-width="1.51"/><path d="M656,335L671,362L686,285Z" fill="rgb(84,104,216)" stroke="rgb(84,104,216)" stroke-width="1.51"/><path d="M636,362L671,362L656,335Z" fill="rgb(69,92,217)" stroke="rgb(69,92,217)" stroke-width="1.51"/><path d="M641,422L671,362L636,362Z" fill="rgb(46,78,219)" stroke="rgb(46,78,219)" stroke-width="1.51"/><path d="M-17,-72L-72,-59L-21,-15Z" fill="rgb(147,193,204)" stroke="rgb(147,193,204)" stroke-width="1.51"/><path d="M559,434L641,422L566,385Z" fill="rgb(33,74,219)" stroke="rgb(33,74,219)" stroke-width="1.51"/><path d="M643,469L641,422L559,434Z" fill="rgb(20,70,219)" stroke="rgb(20,70,219)" stroke-width="1.51"/><path d="M581,490L559,434L508,462Z" fill="rgb(60,86,218)" stroke="rgb(60,86,218)" stroke-width="1.51"/><path d="M437,492L581,490L508,462Z" fill="rgb(78,98,217)" stroke="rgb(78,98,217)" stroke-width="1.51"/><path d="M-88,317L-93,359L-17,327Z" fill="rgb(131,162,209)" stroke="rgb(131,162,209)" stroke-width="1.51"/><path d="M-27,410L-10,493L24,435Z" fill="rgb(110,130,213)" stroke="rgb(110,130,213)" stroke-width="1.51"/><path d="M-82,-18L-93,359L-88,317Z" fill="rgb(137,192,199)" stroke="rgb(137,192,199)" stroke-width="1.51"/><path d="M662,-39L686,-87L626,-67Z" fill="rgb(110,130,213)" stroke="rgb(110,130,213)" stroke-width="1.51"/><path d="M626,-67L686,-87L587,-84Z" fill="rgb(110,130,213)" stroke="rgb(110,130,213)" stroke-width="1.51"/><path d="M587,-84L686,-87L474,-91Z" fill="rgb(114,136,212)" stroke="rgb(114,136,212)" stroke-width="1.51"/><path d="M685,90L686,-87L659,11Z" fill="rgb(109,130,212)" stroke="rgb(109,130,212)" stroke-width="1.51"/><path d="M689,406L686,-87L685,90Z" fill="rgb(79,123,199)" stroke="rgb(79,123,199)" stroke-width="1.51"/><path d="M-66,437L-10,493L-27,410Z" fill="rgb(110,130,213)" stroke="rgb(110,130,213)" stroke-width="1.51"/><path d="M670,469L689,406L641,422Z" fill="rgb(20,70,219)" stroke="rgb(20,70,219)" stroke-width="1.51"/><path d="M641,422L689,406L671,362Z" fill="rgb(27,71,219)" stroke="rgb(27,71,219)" stroke-width="1.51"/><path d="M671,362L689,406L686,285Z" fill="rgb(71,93,217)" stroke="rgb(71,93,217)" stroke-width="1.51"/><path d="M686,285L689,406L685,90Z" fill="rgb(109,132,213)" stroke="rgb(109,132,213)" stroke-width="1.51"/><path d="M-93,359L-66,437L-31,377Z" fill="rgb(113,134,212)" stroke="rgb(113,134,212)" stroke-width="1.51"/><path d="M581,490L643,469L559,434Z" fill="rgb(27,72,219)" stroke="rgb(27,72,219)" stroke-width="1.51"/><path d="M581,490L670,469L643,469Z" fill="rgb(20,70,219)" stroke="rgb(20,70,219)" stroke-width="1.51"/><path d="M643,469L670,469L641,422Z" fill="rgb(20,70,219)" stroke="rgb(20,70,219)" stroke-width="1.51"/><path d="M-93,359L-78,464L-66,437Z" fill="rgb(110,130,213)" stroke="rgb(110,130,213)" stroke-width="1.51"/><path d="M-66,437L-78,464L-10,493Z" fill="rgb(110,130,213)" stroke="rgb(110,130,213)" stroke-width="1.51"/></svg>