<svg xmlns="http://www.w3.org/2000/svg" width="600" height="400"><path d="M270,183L242,140L227,173Z" fill="rgb(213,183,155)" stroke="rgb(213,183,155)" stroke-width="1.51"/><path d="M270,183L281,124L242,140Z" fill="rgb(213,183,155)" stroke="rgb(213,183,155)" stroke-width="1.51"/><path d="M227,173L265,230L270,183Z" fill="rgb(211,178,153)" stroke="rgb(211,178,153)" stroke-width="1.51"/><path d="M270,183L319,157L281,124Z" fill="rgb(212,180,154)" stroke="rgb(212,180,154)" stroke-width="1.51"/><path d="M340,214L319,157L270,183Z" fill="rgb(210,175,153)" stroke="rgb(210,175,153)" stroke-width="1.51"/><path d="M227,173L207,219L265,230Z" fill="rgb(211,178,153)" stroke="rgb(211,178,153)" stroke-width="1.51"/><path d="M281,124L259,91L242,140Z" fill="rgb(212,185,152)" stroke="rgb(212,185,152)" stroke-width="1.51"/><path d="M178,136L174,175L227,173Z" fill="rgb(214,187,155)" stroke="rgb(214,187,155)" stroke-width="1.51"/><path d="M227,173L174,175L207,219Z" fill="rgb(213,183,155)" stroke="rgb(213,183,155)" stroke-width="1.51"/><path d="M309,115L259,91L281,124Z" fill="rgb(210,182,149)" stroke="rgb(210,182,149)" stroke-width="1.51"/><path d="M319,157L309,115L281,124Z" fill="rgb(213,182,154)" stroke="rgb(213,182,154)" stroke-width="1.51"/><path d="M178,136L227,173L242,140Z" fill="rgb(214,188,156)" stroke="rgb(214,188,156)" stroke-width="1.51"/><path d="M227,74L178,136L242,140Z" fill="rgb(212,189,152)" stroke="rgb(212,189,152)" stroke-width="1.51"/><path d="M259,91L227,74L242,140Z" fill="rgb(210,185,148)" stroke="rgb(210,185,148)" stroke-width="1.51"/><path d="M287,35L227,74L259,91Z" fill="rgb(204,182,138)" stroke="rgb(204,182,138)" stroke-width="1.51"/><path d="M207,219L231,262L265,230Z" fill="rgb(210,175,152)" stroke="rgb(210,175,152)" stroke-width="1.51"/><path d="M162,235L231,262L207,219Z" fill="rgb(211,177,153)" stroke="rgb(211,177,153)" stroke-width="1.51"/><path d="M265,230L340,214L270,183Z" fill="rgb(210,173,152)" stroke="rgb(210,173,152)" stroke-width="1.51"/><path d="M389,110L336,62L309,115Z" fill="rgb(206,176,144)" stroke="rgb(206,176,144)" stroke-width="1.51"/><path d="M340,258L340,214L265,230Z" fill="rgb(208,168,150)" stroke="rgb(208,168,150)" stroke-width="1.51"/><path d="M174,175L162,235L207,219Z" fill="rgb(210,180,151)" stroke="rgb(210,180,151)" stroke-width="1.51"/><path d="M113,191L162,235L174,175Z" fill="rgb(208,180,146)" stroke="rgb(208,180,146)" stroke-width="1.51"/><path d="M227,74L164,84L178,136Z" fill="rgb(209,188,145)" stroke="rgb(209,188,145)" stroke-width="1.51"/><path d="M178,136L137,118L174,175Z" fill="rgb(211,188,150)" stroke="rgb(211,188,150)" stroke-width="1.51"/><path d="M231,262L275,282L265,230Z" fill="rgb(209,170,151)" stroke="rgb(209,170,151)" stroke-width="1.51"/><path d="M264,332L275,282L222,331Z" fill="rgb(208,172,151)" stroke="rgb(208,172,151)" stroke-width="1.51"/><path d="M164,84L137,118L178,136Z" fill="rgb(208,188,144)" stroke="rgb(208,188,144)" stroke-width="1.51"/><path d="M275,282L340,258L265,230Z" fill="rgb(208,167,150)" stroke="rgb(208,167,150)" stroke-width="1.51"/><path d="M309,115L336,62L259,91Z" fill="rgb(206,179,143)" stroke="rgb(206,179,143)" stroke-width="1.51"/><path d="M389,110L309,115L319,157Z" fill="rgb(211,179,152)" stroke="rgb(211,179,152)" stroke-width="1.51"/><path d="M336,62L287,35L259,91Z" fill="rgb(202,178,136)" stroke="rgb(202,178,136)" stroke-width="1.51"/><path d="M227,74L162,39L164,84Z" fill="rgb(204,185,136)" stroke="rgb(204,185,136)" stroke-width="1.51"/><path d="M340,214L391,179L319,157Z" fill="rgb(209,172,152)" stroke="rgb(209,172,152)" stroke-width="1.51"/><path d="M387,235L391,179L340,214Z" fill="rgb(208,166,150)" stroke="rgb(208,166,150)" stroke-width="1.51"/><path d="M137,118L113,191L174,175Z" fill="rgb(209,185,146)" stroke="rgb(209,185,146)" stroke-width="1.51"/><path d="M162,235L183,293L231,262Z" fill="rgb(209,174,151)" stroke="rgb(209,174,151)" stroke-width="1.51"/><path d="M113,191L131,238L162,235Z" fill="rgb(205,177,142)" stroke="rgb(205,177,142)" stroke-width="1.51"/><path d="M131,238L183,293L162,235Z" fill="rgb(206,173,145)" stroke="rgb(206,173,145)" stroke-width="1.51"/><path d="M391,179L389,110L319,157Z" fill="rgb(210,174,153)" stroke="rgb(210,174,153)" stroke-width="1.51"/><path d="M340,258L387,235L340,214Z" fill="rgb(207,164,149)" stroke="rgb(207,164,149)" stroke-width="1.51"/><path d="M324,317L362,267L340,258Z" fill="rgb(206,162,149)" stroke="rgb(206,162,149)" stroke-width="1.51"/><path d="M362,267L387,235L340,258Z" fill="rgb(206,161,148)" stroke="rgb(206,161,148)" stroke-width="1.51"/><path d="M216,8L162,39L227,74Z" fill="rgb(202,185,132)" stroke="rgb(202,185,132)" stroke-width="1.51"/><path d="M164,84L132,64L137,118Z" fill="rgb(203,186,135)" stroke="rgb(203,186,135)" stroke-width="1.51"/><path d="M137,118L68,163L113,191Z" fill="rgb(205,184,139)" stroke="rgb(205,184,139)" stroke-width="1.51"/><path d="M162,39L132,64L164,84Z" fill="rgb(200,184,130)" stroke="rgb(200,184,130)" stroke-width="1.51"/><path d="M287,35L216,8L227,74Z" fill="rgb(200,181,131)" stroke="rgb(200,181,131)" stroke-width="1.51"/><path d="M287,35L268,-17L216,8Z" fill="rgb(196,177,122)" stroke="rgb(196,177,122)" stroke-width="1.51"/><path d="M336,62L327,19L287,35Z" fill="rgb(198,175,129)" stroke="rgb(198,175,129)" stroke-width="1.51"/><path d="M377,25L327,19L336,62Z" fill="rgb(197,171,127)" stroke="rgb(197,171,127)" stroke-width="1.51"/><path d="M389,110L385,63L336,62Z" fill="rgb(203,172,139)" stroke="rgb(203,172,139)" stroke-width="1.51"/><path d="M391,179L415,139L389,110Z" fill="rgb(209,173,152)" stroke="rgb(209,173,152)" stroke-width="1.51"/><path d="M438,189L415,139L391,179Z" fill="rgb(208,170,151)" stroke="rgb(208,170,151)" stroke-width="1.51"/><path d="M413,68L385,63L389,110Z" fill="rgb(202,170,138)" stroke="rgb(202,170,138)" stroke-width="1.51"/><path d="M222,331L275,282L231,262Z" fill="rgb(209,171,151)" stroke="rgb(209,171,151)" stroke-width="1.51"/><path d="M275,282L324,317L340,258Z" fill="rgb(207,164,149)" stroke="rgb(207,164,149)" stroke-width="1.51"/><path d="M264,332L324,317L275,282Z" fill="rgb(207,169,150)" stroke="rgb(207,169,150)" stroke-width="1.51"/><path d="M432,242L438,189L387,235Z" fill="rgb(206,163,149)" stroke="rgb(206,163,149)" stroke-width="1.51"/><path d="M183,293L222,331L231,262Z" fill="rgb(209,174,152)" stroke="rgb(209,174,152)" stroke-width="1.51"/><path d="M183,293L178,328L222,331Z" fill="rgb(209,176,151)" stroke="rgb(209,176,151)" stroke-width="1.51"/><path d="M130,343L178,328L183,293Z" fill="rgb(206,176,146)" stroke="rgb(206,176,146)" stroke-width="1.51"/><path d="M131,238L107,274L183,293Z" fill="rgb(204,171,142)" stroke="rgb(204,171,142)" stroke-width="1.51"/><path d="M73,224L107,274L131,238Z" fill="rgb(201,172,136)" stroke="rgb(201,172,136)" stroke-width="1.51"/><path d="M327,19L268,-17L287,35Z" fill="rgb(195,175,122)" stroke="rgb(195,175,122)" stroke-width="1.51"/><path d="M58,119L68,163L137,118Z" fill="rgb(204,186,137)" stroke="rgb(204,186,137)" stroke-width="1.51"/><path d="M113,191L73,224L131,238Z" fill="rgb(203,176,137)" stroke="rgb(203,176,137)" stroke-width="1.51"/><path d="M132,64L90,70L137,118Z" fill="rgb(200,184,129)" stroke="rgb(200,184,129)" stroke-width="1.51"/><path d="M127,21L90,70L132,64Z" fill="rgb(195,181,120)" stroke="rgb(195,181,120)" stroke-width="1.51"/><path d="M127,21L132,64L162,39Z" fill="rgb(196,182,122)" stroke="rgb(196,182,122)" stroke-width="1.51"/><path d="M385,63L377,25L336,62Z" fill="rgb(198,171,131)" stroke="rgb(198,171,131)" stroke-width="1.51"/><path d="M327,19L311,-41L268,-17Z" fill="rgb(193,173,119)" stroke="rgb(193,173,119)" stroke-width="1.51"/><path d="M415,17L377,25L385,63Z" fill="rgb(196,167,126)" stroke="rgb(196,167,126)" stroke-width="1.51"/><path d="M415,139L413,68L389,110Z" fill="rgb(206,172,145)" stroke="rgb(206,172,145)" stroke-width="1.51"/><path d="M387,235L438,189L391,179Z" fill="rgb(207,165,150)" stroke="rgb(207,165,150)" stroke-width="1.51"/><path d="M415,139L464,130L413,68Z" fill="rgb(207,174,147)" stroke="rgb(207,174,147)" stroke-width="1.51"/><path d="M432,242L387,235L422,268Z" fill="rgb(205,159,148)" stroke="rgb(205,159,148)" stroke-width="1.51"/><path d="M68,163L73,224L113,191Z" fill="rgb(201,178,135)" stroke="rgb(201,178,135)" stroke-width="1.51"/><path d="M206,-22L162,39L216,8Z" fill="rgb(196,182,123)" stroke="rgb(196,182,123)" stroke-width="1.51"/><path d="M191,-39L127,21L162,39Z" fill="rgb(192,180,116)" stroke="rgb(192,180,116)" stroke-width="1.51"/><path d="M268,-17L206,-22L216,8Z" fill="rgb(195,179,121)" stroke="rgb(195,179,121)" stroke-width="1.51"/><path d="M422,268L387,235L362,267Z" fill="rgb(205,159,147)" stroke="rgb(205,159,147)" stroke-width="1.51"/><path d="M68,163L35,222L73,224Z" fill="rgb(198,176,130)" stroke="rgb(198,176,130)" stroke-width="1.51"/><path d="M90,70L58,119L137,118Z" fill="rgb(200,184,130)" stroke="rgb(200,184,130)" stroke-width="1.51"/><path d="M264,332L280,366L324,317Z" fill="rgb(207,170,150)" stroke="rgb(207,170,150)" stroke-width="1.51"/><path d="M222,331L220,361L264,332Z" fill="rgb(209,175,151)" stroke="rgb(209,175,151)" stroke-width="1.51"/><path d="M178,328L220,361L222,331Z" fill="rgb(210,177,152)" stroke="rgb(210,177,152)" stroke-width="1.51"/><path d="M190,384L220,361L178,328Z" fill="rgb(209,179,152)" stroke="rgb(209,179,152)" stroke-width="1.51"/><path d="M391,320L422,268L362,267Z" fill="rgb(204,158,147)" stroke="rgb(204,158,147)" stroke-width="1.51"/><path d="M220,361L280,366L264,332Z" fill="rgb(208,174,150)" stroke="rgb(208,174,150)" stroke-width="1.51"/><path d="M324,317L391,320L362,267Z" fill="rgb(205,161,148)" stroke="rgb(205,161,148)" stroke-width="1.51"/><path d="M338,367L391,320L324,317Z" fill="rgb(206,165,148)" stroke="rgb(206,165,148)" stroke-width="1.51"/><path d="M107,274L130,343L183,293Z" fill="rgb(204,173,142)" stroke="rgb(204,173,142)" stroke-width="1.51"/><path d="M73,224L72,273L107,274Z" fill="rgb(199,170,132)" stroke="rgb(199,170,132)" stroke-width="1.51"/><path d="M35,222L72,273L73,224Z" fill="rgb(197,171,128)" stroke="rgb(197,171,128)" stroke-width="1.51"/><path d="M206,-22L191,-39L162,39Z" fill="rgb(194,181,119)" stroke="rgb(194,181,119)" stroke-width="1.51"/><path d="M235,-67L191,-39L206,-22Z" fill="rgb(195,181,121)" stroke="rgb(195,181,121)" stroke-width="1.51"/><path d="M438,189L465,162L415,139Z" fill="rgb(209,171,151)" stroke="rgb(209,171,151)" stroke-width="1.51"/><path d="M457,232L465,162L438,189Z" fill="rgb(207,168,150)" stroke="rgb(207,168,150)" stroke-width="1.51"/><path d="M457,232L438,189L432,242Z" fill="rgb(206,164,149)" stroke="rgb(206,164,149)" stroke-width="1.51"/><path d="M375,-33L311,-41L327,19Z" fill="rgb(192,170,118)" stroke="rgb(192,170,118)" stroke-width="1.51"/><path d="M268,-17L235,-67L206,-22Z" fill="rgb(195,179,120)" stroke="rgb(195,179,120)" stroke-width="1.51"/><path d="M465,162L464,130L415,139Z" fill="rgb(209,174,152)" stroke="rgb(209,174,152)" stroke-width="1.51"/><path d="M468,293L457,232L432,242Z" fill="rgb(205,160,148)" stroke="rgb(205,160,148)" stroke-width="1.51"/><path d="M468,293L432,242L422,268Z" fill="rgb(204,158,147)" stroke="rgb(204,158,147)" stroke-width="1.51"/><path d="M70,339L130,343L107,274Z" fill="rgb(200,173,135)" stroke="rgb(200,173,135)" stroke-width="1.51"/><path d="M58,119L36,132L68,163Z" fill="rgb(201,184,131)" stroke="rgb(201,184,131)" stroke-width="1.51"/><path d="M38,85L36,132L58,119Z" fill="rgb(197,182,124)" stroke="rgb(197,182,124)" stroke-width="1.51"/><path d="M38,85L58,119L90,70Z" fill="rgb(196,182,122)" stroke="rgb(196,182,122)" stroke-width="1.51"/><path d="M377,25L375,-33L327,19Z" fill="rgb(192,168,119)" stroke="rgb(192,168,119)" stroke-width="1.51"/><path d="M413,68L415,17L385,63Z" fill="rgb(198,168,130)" stroke="rgb(198,168,130)" stroke-width="1.51"/><path d="M468,79L415,17L413,68Z" fill="rgb(198,170,131)" stroke="rgb(198,170,131)" stroke-width="1.51"/><path d="M280,366L338,367L324,317Z" fill="rgb(206,169,149)" stroke="rgb(206,169,149)" stroke-width="1.51"/><path d="M17,180L35,222L68,163Z" fill="rgb(197,177,127)" stroke="rgb(197,177,127)" stroke-width="1.51"/><path d="M391,320L414,322L422,268Z" fill="rgb(204,159,147)" stroke="rgb(204,159,147)" stroke-width="1.51"/><path d="M389,361L414,322L391,320Z" fill="rgb(204,161,147)" stroke="rgb(204,161,147)" stroke-width="1.51"/><path d="M73,14L90,70L127,21Z" fill="rgb(191,179,112)" stroke="rgb(191,179,112)" stroke-width="1.51"/><path d="M30,35L38,85L90,70Z" fill="rgb(190,179,112)" stroke="rgb(190,179,112)" stroke-width="1.51"/><path d="M130,343L190,384L178,328Z" fill="rgb(206,178,146)" stroke="rgb(206,178,146)" stroke-width="1.51"/><path d="M220,361L272,419L280,366Z" fill="rgb(208,176,150)" stroke="rgb(208,176,150)" stroke-width="1.51"/><path d="M280,366L336,418L338,367Z" fill="rgb(207,171,149)" stroke="rgb(207,171,149)" stroke-width="1.51"/><path d="M275,-82L235,-67L268,-17Z" fill="rgb(194,177,120)" stroke="rgb(194,177,120)" stroke-width="1.51"/><path d="M464,130L468,79L413,68Z" fill="rgb(204,173,141)" stroke="rgb(204,173,141)" stroke-width="1.51"/><path d="M514,139L468,79L464,130Z" fill="rgb(207,176,148)" stroke="rgb(207,176,148)" stroke-width="1.51"/><path d="M311,-41L275,-82L268,-17Z" fill="rgb(194,174,120)" stroke="rgb(194,174,120)" stroke-width="1.51"/><path d="M415,17L375,-33L377,25Z" fill="rgb(191,165,118)" stroke="rgb(191,165,118)" stroke-width="1.51"/><path d="M443,-38L375,-33L415,17Z" fill="rgb(190,165,117)" stroke="rgb(190,165,117)" stroke-width="1.51"/><path d="M125,-37L73,14L127,21Z" fill="rgb(186,177,105)" stroke="rgb(186,177,105)" stroke-width="1.51"/><path d="M125,-37L127,21L191,-39Z" fill="rgb(190,179,112)" stroke="rgb(190,179,112)" stroke-width="1.51"/><path d="M-19,174L17,180L36,132Z" fill="rgb(196,178,122)" stroke="rgb(196,178,122)" stroke-width="1.51"/><path d="M36,132L17,180L68,163Z" fill="rgb(198,180,128)" stroke="rgb(198,180,128)" stroke-width="1.51"/><path d="M163,-81L125,-37L191,-39Z" fill="rgb(191,180,114)" stroke="rgb(191,180,114)" stroke-width="1.51"/><path d="M338,367L389,361L391,320Z" fill="rgb(205,164,148)" stroke="rgb(205,164,148)" stroke-width="1.51"/><path d="M375,-33L338,-66L311,-41Z" fill="rgb(192,169,118)" stroke="rgb(192,169,118)" stroke-width="1.51"/><path d="M235,-67L163,-81L191,-39Z" fill="rgb(195,182,121)" stroke="rgb(195,182,121)" stroke-width="1.51"/><path d="M338,-66L275,-82L311,-41Z" fill="rgb(193,172,119)" stroke="rgb(193,172,119)" stroke-width="1.51"/><path d="M130,343L110,368L190,384Z" fill="rgb(204,178,142)" stroke="rgb(204,178,142)" stroke-width="1.51"/><path d="M70,339L110,368L130,343Z" fill="rgb(200,175,135)" stroke="rgb(200,175,135)" stroke-width="1.51"/><path d="M70,339L107,274L72,273Z" fill="rgb(198,170,131)" stroke="rgb(198,170,131)" stroke-width="1.51"/><path d="M460,315L468,293L422,268Z" fill="rgb(204,160,147)" stroke="rgb(204,160,147)" stroke-width="1.51"/><path d="M529,158L514,139L465,162Z" fill="rgb(209,175,151)" stroke="rgb(209,175,151)" stroke-width="1.51"/><path d="M465,162L514,139L464,130Z" fill="rgb(209,175,152)" stroke="rgb(209,175,152)" stroke-width="1.51"/><path d="M460,315L422,268L414,322Z" fill="rgb(204,160,147)" stroke="rgb(204,160,147)" stroke-width="1.51"/><path d="M22,336L70,339L72,273Z" fill="rgb(196,170,126)" stroke="rgb(196,170,126)" stroke-width="1.51"/><path d="M8,286L72,273L35,222Z" fill="rgb(195,167,124)" stroke="rgb(195,167,124)" stroke-width="1.51"/><path d="M372,416L389,361L338,367Z" fill="rgb(205,167,148)" stroke="rgb(205,167,148)" stroke-width="1.51"/><path d="M372,416L411,363L389,361Z" fill="rgb(205,164,147)" stroke="rgb(205,164,147)" stroke-width="1.51"/><path d="M389,361L411,363L414,322Z" fill="rgb(204,161,147)" stroke="rgb(204,161,147)" stroke-width="1.51"/><path d="M219,418L272,419L220,361Z" fill="rgb(208,179,151)" stroke="rgb(208,179,151)" stroke-width="1.51"/><path d="M219,418L220,361L190,384Z" fill="rgb(210,180,152)" stroke="rgb(210,180,152)" stroke-width="1.51"/><path d="M157,423L219,418L190,384Z" fill="rgb(209,181,150)" stroke="rgb(209,181,150)" stroke-width="1.51"/><path d="M73,14L30,35L90,70Z" fill="rgb(188,178,108)" stroke="rgb(188,178,108)" stroke-width="1.51"/><path d="M-39,137L-19,174L36,132Z" fill="rgb(195,180,121)" stroke="rgb(195,180,121)" stroke-width="1.51"/><path d="M20,-20L30,35L73,14Z" fill="rgb(181,175,95)" stroke="rgb(181,175,95)" stroke-width="1.51"/><path d="M411,363L460,315L414,322Z" fill="rgb(204,162,147)" stroke="rgb(204,162,147)" stroke-width="1.51"/><path d="M125,-37L61,-30L73,14Z" fill="rgb(184,176,101)" stroke="rgb(184,176,101)" stroke-width="1.51"/><path d="M275,-82L163,-81L235,-67Z" fill="rgb(195,180,121)" stroke="rgb(195,180,121)" stroke-width="1.51"/><path d="M529,158L465,162L531,237Z" fill="rgb(208,171,150)" stroke="rgb(208,171,150)" stroke-width="1.51"/><path d="M272,419L336,418L280,366Z" fill="rgb(207,174,149)" stroke="rgb(207,174,149)" stroke-width="1.51"/><path d="M17,180L-33,241L35,222Z" fill="rgb(193,172,120)" stroke="rgb(193,172,120)" stroke-width="1.51"/><path d="M-8,73L36,132L38,85Z" fill="rgb(192,180,115)" stroke="rgb(192,180,115)" stroke-width="1.51"/><path d="M58,-89L61,-30L125,-37Z" fill="rgb(184,176,100)" stroke="rgb(184,176,100)" stroke-width="1.51"/><path d="M-33,241L8,286L35,222Z" fill="rgb(191,166,118)" stroke="rgb(191,166,118)" stroke-width="1.51"/><path d="M508,61L479,10L468,79Z" fill="rgb(197,171,130)" stroke="rgb(197,171,130)" stroke-width="1.51"/><path d="M468,79L479,10L415,17Z" fill="rgb(196,169,126)" stroke="rgb(196,169,126)" stroke-width="1.51"/><path d="M375,-33L380,-90L338,-66Z" fill="rgb(191,167,118)" stroke="rgb(191,167,118)" stroke-width="1.51"/><path d="M-28,17L-8,73L30,35Z" fill="rgb(182,175,97)" stroke="rgb(182,175,97)" stroke-width="1.51"/><path d="M30,35L-8,73L38,85Z" fill="rgb(187,178,106)" stroke="rgb(187,178,106)" stroke-width="1.51"/><path d="M110,368L157,423L190,384Z" fill="rgb(205,179,144)" stroke="rgb(205,179,144)" stroke-width="1.51"/><path d="M219,418L286,456L272,419Z" fill="rgb(208,177,150)" stroke="rgb(208,177,150)" stroke-width="1.51"/><path d="M272,419L286,456L336,418Z" fill="rgb(207,174,149)" stroke="rgb(207,174,149)" stroke-width="1.51"/><path d="M123,427L157,423L110,368Z" fill="rgb(203,179,140)" stroke="rgb(203,179,140)" stroke-width="1.51"/><path d="M123,427L110,368L62,391Z" fill="rgb(200,177,134)" stroke="rgb(200,177,134)" stroke-width="1.51"/><path d="M514,139L508,61L468,79Z" fill="rgb(204,175,141)" stroke="rgb(204,175,141)" stroke-width="1.51"/><path d="M514,139L558,127L508,61Z" fill="rgb(206,178,146)" stroke="rgb(206,178,146)" stroke-width="1.51"/><path d="M531,237L465,162L457,232Z" fill="rgb(207,167,149)" stroke="rgb(207,167,149)" stroke-width="1.51"/><path d="M531,237L457,232L523,276Z" fill="rgb(205,163,148)" stroke="rgb(205,163,148)" stroke-width="1.51"/><path d="M457,-27L443,-38L415,17Z" fill="rgb(190,166,117)" stroke="rgb(190,166,117)" stroke-width="1.51"/><path d="M336,418L372,416L338,367Z" fill="rgb(206,169,149)" stroke="rgb(206,169,149)" stroke-width="1.51"/><path d="M541,317L468,293L460,315Z" fill="rgb(204,163,147)" stroke="rgb(204,163,147)" stroke-width="1.51"/><path d="M479,10L457,-27L415,17Z" fill="rgb(190,166,117)" stroke="rgb(190,166,117)" stroke-width="1.51"/><path d="M338,-66L380,-90L275,-82Z" fill="rgb(192,170,118)" stroke="rgb(192,170,118)" stroke-width="1.51"/><path d="M275,-82L121,-94L163,-81Z" fill="rgb(194,181,119)" stroke="rgb(194,181,119)" stroke-width="1.51"/><path d="M443,-38L380,-90L375,-33Z" fill="rgb(191,164,117)" stroke="rgb(191,164,117)" stroke-width="1.51"/><path d="M440,-91L380,-90L443,-38Z" fill="rgb(190,165,117)" stroke="rgb(190,165,117)" stroke-width="1.51"/><path d="M8,286L22,336L72,273Z" fill="rgb(194,168,123)" stroke="rgb(194,168,123)" stroke-width="1.51"/><path d="M523,276L457,232L468,293Z" fill="rgb(204,160,147)" stroke="rgb(204,160,147)" stroke-width="1.51"/><path d="M523,276L468,293L541,317Z" fill="rgb(204,163,147)" stroke="rgb(204,163,147)" stroke-width="1.51"/><path d="M163,-81L121,-94L125,-37Z" fill="rgb(189,179,110)" stroke="rgb(189,179,110)" stroke-width="1.51"/><path d="M380,-90L121,-94L275,-82Z" fill="rgb(194,177,120)" stroke="rgb(194,177,120)" stroke-width="1.51"/><path d="M-8,73L-39,137L36,132Z" fill="rgb(192,180,116)" stroke="rgb(192,180,116)" stroke-width="1.51"/><path d="M-19,174L-33,241L17,180Z" fill="rgb(193,173,119)" stroke="rgb(193,173,119)" stroke-width="1.51"/><path d="M8,286L-37,338L22,336Z" fill="rgb(190,168,117)" stroke="rgb(190,168,117)" stroke-width="1.51"/><path d="M208,492L286,456L219,418Z" fill="rgb(208,178,151)" stroke="rgb(208,178,151)" stroke-width="1.51"/><path d="M62,391L110,368L70,339Z" fill="rgb(198,175,131)" stroke="rgb(198,175,131)" stroke-width="1.51"/><path d="M488,389L460,315L411,363Z" fill="rgb(204,164,147)" stroke="rgb(204,164,147)" stroke-width="1.51"/><path d="M187,468L219,418L157,423Z" fill="rgb(209,181,150)" stroke="rgb(209,181,150)" stroke-width="1.51"/><path d="M336,418L362,482L372,416Z" fill="rgb(206,169,148)" stroke="rgb(206,169,148)" stroke-width="1.51"/><path d="M-77,174L-33,241L-19,174Z" fill="rgb(193,173,119)" stroke="rgb(193,173,119)" stroke-width="1.51"/><path d="M25,368L62,391L70,339Z" fill="rgb(195,173,126)" stroke="rgb(195,173,126)" stroke-width="1.51"/><path d="M61,-30L20,-20L73,14Z" fill="rgb(181,175,95)" stroke="rgb(181,175,95)" stroke-width="1.51"/><path d="M-8,73L-73,126L-39,137Z" fill="rgb(192,180,116)" stroke="rgb(192,180,116)" stroke-width="1.51"/><path d="M6,-78L20,-20L61,-30Z" fill="rgb(178,173,91)" stroke="rgb(178,173,91)" stroke-width="1.51"/><path d="M22,336L25,368L70,339Z" fill="rgb(194,171,123)" stroke="rgb(194,171,123)" stroke-width="1.51"/><path d="M-17,383L25,368L22,336Z" fill="rgb(191,171,119)" stroke="rgb(191,171,119)" stroke-width="1.51"/><path d="M372,416L411,425L411,363Z" fill="rgb(204,165,147)" stroke="rgb(204,165,147)" stroke-width="1.51"/><path d="M362,482L411,425L372,416Z" fill="rgb(205,166,148)" stroke="rgb(205,166,148)" stroke-width="1.51"/><path d="M208,492L312,464L286,456Z" fill="rgb(207,176,150)" stroke="rgb(207,176,150)" stroke-width="1.51"/><path d="M286,456L312,464L336,418Z" fill="rgb(207,173,149)" stroke="rgb(207,173,149)" stroke-width="1.51"/><path d="M529,158L558,127L514,139Z" fill="rgb(209,178,151)" stroke="rgb(209,178,151)" stroke-width="1.51"/><path d="M531,13L519,-7L479,10Z" fill="rgb(191,169,118)" stroke="rgb(191,169,118)" stroke-width="1.51"/><path d="M481,-86L443,-38L457,-27Z" fill="rgb(190,167,117)" stroke="rgb(190,167,117)" stroke-width="1.51"/><path d="M579,165L558,127L529,158Z" fill="rgb(209,178,151)" stroke="rgb(209,178,151)" stroke-width="1.51"/><path d="M579,165L529,158L531,237Z" fill="rgb(207,172,150)" stroke="rgb(207,172,150)" stroke-width="1.51"/><path d="M-33,241L-38,276L8,286Z" fill="rgb(191,164,117)" stroke="rgb(191,164,117)" stroke-width="1.51"/><path d="M-90,236L-38,276L-33,241Z" fill="rgb(191,166,117)" stroke="rgb(191,166,117)" stroke-width="1.51"/><path d="M127,484L187,468L157,423Z" fill="rgb(206,180,145)" stroke="rgb(206,180,145)" stroke-width="1.51"/><path d="M208,492L187,468L127,484Z" fill="rgb(207,181,148)" stroke="rgb(207,181,148)" stroke-width="1.51"/><path d="M20,-20L-28,17L30,35Z" fill="rgb(178,173,90)" stroke="rgb(178,173,90)" stroke-width="1.51"/><path d="M380,-90L440,-91L121,-94Z" fill="rgb(193,172,119)" stroke="rgb(193,172,119)" stroke-width="1.51"/><path d="M481,-86L440,-91L443,-38Z" fill="rgb(190,167,117)" stroke="rgb(190,167,117)" stroke-width="1.51"/><path d="M519,-7L457,-27L479,10Z" fill="rgb(190,168,117)" stroke="rgb(190,168,117)" stroke-width="1.51"/><path d="M566,268L560,240L531,237Z" fill="rgb(205,165,148)" stroke="rgb(205,165,148)" stroke-width="1.51"/><path d="M566,268L531,237L523,276Z" fill="rgb(205,163,147)" stroke="rgb(205,163,147)" stroke-width="1.51"/><path d="M531,13L479,10L508,61Z" fill="rgb(195,171,124)" stroke="rgb(195,171,124)" stroke-width="1.51"/><path d="M559,24L531,13L508,61Z" fill="rgb(195,172,125)" stroke="rgb(195,172,125)" stroke-width="1.51"/><path d="M20,-20L-21,-12L-28,17Z" fill="rgb(175,172,85)" stroke="rgb(175,172,85)" stroke-width="1.51"/><path d="M121,-94L58,-89L125,-37Z" fill="rgb(186,177,104)" stroke="rgb(186,177,104)" stroke-width="1.51"/><path d="M558,127L564,76L508,61Z" fill="rgb(203,177,140)" stroke="rgb(203,177,140)" stroke-width="1.51"/><path d="M619,114L564,76L558,127Z" fill="rgb(206,179,145)" stroke="rgb(206,179,145)" stroke-width="1.51"/><path d="M6,-78L-21,-12L20,-20Z" fill="rgb(175,172,86)" stroke="rgb(175,172,86)" stroke-width="1.51"/><path d="M467,429L488,389L411,363Z" fill="rgb(204,167,147)" stroke="rgb(204,167,147)" stroke-width="1.51"/><path d="M-39,137L-77,174L-19,174Z" fill="rgb(195,178,120)" stroke="rgb(195,178,120)" stroke-width="1.51"/><path d="M-88,91L-73,126L-8,73Z" fill="rgb(190,179,111)" stroke="rgb(190,179,111)" stroke-width="1.51"/><path d="M-88,91L-8,73L-69,16Z" fill="rgb(184,176,102)" stroke="rgb(184,176,102)" stroke-width="1.51"/><path d="M488,389L541,317L460,315Z" fill="rgb(204,165,147)" stroke="rgb(204,165,147)" stroke-width="1.51"/><path d="M560,240L579,165L531,237Z" fill="rgb(207,170,149)" stroke="rgb(207,170,149)" stroke-width="1.51"/><path d="M625,168L579,165L624,228Z" fill="rgb(207,175,150)" stroke="rgb(207,175,150)" stroke-width="1.51"/><path d="M-73,126L-77,174L-39,137Z" fill="rgb(195,180,121)" stroke="rgb(195,180,121)" stroke-width="1.51"/><path d="M187,468L208,492L219,418Z" fill="rgb(210,181,152)" stroke="rgb(210,181,152)" stroke-width="1.51"/><path d="M127,484L157,423L123,427Z" fill="rgb(204,179,141)" stroke="rgb(204,179,141)" stroke-width="1.51"/><path d="M70,442L123,427L62,391Z" fill="rgb(198,177,132)" stroke="rgb(198,177,132)" stroke-width="1.51"/><path d="M541,317L566,268L523,276Z" fill="rgb(204,164,147)" stroke="rgb(204,164,147)" stroke-width="1.51"/><path d="M23,443L70,442L62,391Z" fill="rgb(195,175,126)" stroke="rgb(195,175,126)" stroke-width="1.51"/><path d="M23,443L62,391L25,368Z" fill="rgb(194,174,123)" stroke="rgb(194,174,123)" stroke-width="1.51"/><path d="M411,425L467,429L411,363Z" fill="rgb(204,166,147)" stroke="rgb(204,166,147)" stroke-width="1.51"/><path d="M312,464L362,482L336,418Z" fill="rgb(206,170,149)" stroke="rgb(206,170,149)" stroke-width="1.51"/><path d="M208,492L362,482L312,464Z" fill="rgb(207,174,149)" stroke="rgb(207,174,149)" stroke-width="1.51"/><path d="M-38,276L-37,338L8,286Z" fill="rgb(190,166,117)" stroke="rgb(190,166,117)" stroke-width="1.51"/><path d="M-65,319L-37,338L-38,276Z" fill="rgb(190,167,117)" stroke="rgb(190,167,117)" stroke-width="1.51"/><path d="M531,13L577,-38L519,-7Z" fill="rgb(190,170,117)" stroke="rgb(190,170,117)" stroke-width="1.51"/><path d="M519,-7L481,-86L457,-27Z" fill="rgb(190,168,117)" stroke="rgb(190,168,117)" stroke-width="1.51"/><path d="M564,76L559,24L508,61Z" fill="rgb(198,174,131)" stroke="rgb(198,174,131)" stroke-width="1.51"/><path d="M621,57L559,24L564,76Z" fill="rgb(198,175,131)" stroke="rgb(198,175,131)" stroke-width="1.51"/><path d="M538,-94L481,-86L519,-7Z" fill="rgb(190,169,117)" stroke="rgb(190,169,117)" stroke-width="1.51"/><path d="M425,484L467,429L411,425Z" fill="rgb(204,166,147)" stroke="rgb(204,166,147)" stroke-width="1.51"/><path d="M488,389L531,380L541,317Z" fill="rgb(204,167,147)" stroke="rgb(204,167,147)" stroke-width="1.51"/><path d="M72,471L127,484L123,427Z" fill="rgb(201,178,136)" stroke="rgb(201,178,136)" stroke-width="1.51"/><path d="M58,-89L6,-78L61,-30Z" fill="rgb(180,174,93)" stroke="rgb(180,174,93)" stroke-width="1.51"/><path d="M-37,338L-17,383L22,336Z" fill="rgb(190,170,117)" stroke="rgb(190,170,117)" stroke-width="1.51"/><path d="M70,442L72,471L123,427Z" fill="rgb(199,177,132)" stroke="rgb(199,177,132)" stroke-width="1.51"/><path d="M-73,126L-88,91L-77,174Z" fill="rgb(195,182,120)" stroke="rgb(195,182,120)" stroke-width="1.51"/><path d="M-69,16L-8,73L-28,17Z" fill="rgb(181,175,95)" stroke="rgb(181,175,95)" stroke-width="1.51"/><path d="M-69,16L-28,17L-21,-12Z" fill="rgb(176,172,87)" stroke="rgb(176,172,87)" stroke-width="1.51"/><path d="M-77,174L-90,236L-33,241Z" fill="rgb(192,171,119)" stroke="rgb(192,171,119)" stroke-width="1.51"/><path d="M-73,385L-42,419L-17,383Z" fill="rgb(190,172,117)" stroke="rgb(190,172,117)" stroke-width="1.51"/><path d="M-88,91L-90,236L-77,174Z" fill="rgb(194,177,120)" stroke="rgb(194,177,120)" stroke-width="1.51"/><path d="M-90,280L-65,319L-38,276Z" fill="rgb(190,166,117)" stroke="rgb(190,166,117)" stroke-width="1.51"/><path d="M506,439L531,380L488,389Z" fill="rgb(204,169,147)" stroke="rgb(204,169,147)" stroke-width="1.51"/><path d="M541,317L569,341L566,268Z" fill="rgb(204,166,147)" stroke="rgb(204,166,147)" stroke-width="1.51"/><path d="M-81,-23L-69,16L-21,-12Z" fill="rgb(175,172,85)" stroke="rgb(175,172,85)" stroke-width="1.51"/><path d="M23,443L72,471L70,442Z" fill="rgb(195,175,126)" stroke="rgb(195,175,126)" stroke-width="1.51"/><path d="M-17,383L23,443L25,368Z" fill="rgb(191,173,119)" stroke="rgb(191,173,119)" stroke-width="1.51"/><path d="M38,485L23,443L-18,490Z" fill="rgb(192,173,119)" stroke="rgb(192,173,119)" stroke-width="1.51"/><path d="M-90,236L-90,280L-38,276Z" fill="rgb(190,165,117)" stroke="rgb(190,165,117)" stroke-width="1.51"/><path d="M531,380L569,341L541,317Z" fill="rgb(204,168,147)" stroke="rgb(204,168,147)" stroke-width="1.51"/><path d="M625,168L619,114L579,165Z" fill="rgb(209,180,151)" stroke="rgb(209,180,151)" stroke-width="1.51"/><path d="M362,482L425,484L411,425Z" fill="rgb(204,165,147)" stroke="rgb(204,165,147)" stroke-width="1.51"/><path d="M467,429L506,439L488,389Z" fill="rgb(204,168,147)" stroke="rgb(204,168,147)" stroke-width="1.51"/><path d="M208,492L425,484L362,482Z" fill="rgb(206,171,149)" stroke="rgb(206,171,149)" stroke-width="1.51"/><path d="M579,165L619,114L558,127Z" fill="rgb(210,181,152)" stroke="rgb(210,181,152)" stroke-width="1.51"/><path d="M579,165L560,240L624,228Z" fill="rgb(207,172,149)" stroke="rgb(207,172,149)" stroke-width="1.51"/><path d="M6,-78L-34,-76L-21,-12Z" fill="rgb(175,172,85)" stroke="rgb(175,172,85)" stroke-width="1.51"/><path d="M58,-89L-34,-76L6,-78Z" fill="rgb(176,172,87)" stroke="rgb(176,172,87)" stroke-width="1.51"/><path d="M624,228L560,240L566,268Z" fill="rgb(205,167,148)" stroke="rgb(205,167,148)" stroke-width="1.51"/><path d="M463,486L506,439L467,429Z" fill="rgb(204,168,147)" stroke="rgb(204,168,147)" stroke-width="1.51"/><path d="M531,380L564,392L569,341Z" fill="rgb(204,169,147)" stroke="rgb(204,169,147)" stroke-width="1.51"/><path d="M642,264L624,228L566,268Z" fill="rgb(205,167,148)" stroke="rgb(205,167,148)" stroke-width="1.51"/><path d="M-34,-76L-81,-23L-21,-12Z" fill="rgb(175,172,85)" stroke="rgb(175,172,85)" stroke-width="1.51"/><path d="M-69,16L-81,-23L-88,91Z" fill="rgb(180,174,93)" stroke="rgb(180,174,93)" stroke-width="1.51"/><path d="M559,24L577,-38L531,13Z" fill="rgb(190,171,117)" stroke="rgb(190,171,117)" stroke-width="1.51"/><path d="M642,9L577,-38L559,24Z" fill="rgb(190,172,117)" stroke="rgb(190,172,117)" stroke-width="1.51"/><path d="M619,114L621,57L564,76Z" fill="rgb(202,179,139)" stroke="rgb(202,179,139)" stroke-width="1.51"/><path d="M667,120L621,57L619,114Z" fill="rgb(204,180,143)" stroke="rgb(204,180,143)" stroke-width="1.51"/><path d="M425,484L463,486L467,429Z" fill="rgb(204,167,147)" stroke="rgb(204,167,147)" stroke-width="1.51"/><path d="M208,492L463,486L425,484Z" fill="rgb(205,168,148)" stroke="rgb(205,168,148)" stroke-width="1.51"/><path d="M72,471L38,485L127,484Z" fill="rgb(198,177,131)" stroke="rgb(198,177,131)" stroke-width="1.51"/><path d="M127,484L38,485L208,492Z" fill="rgb(202,179,139)" stroke="rgb(202,179,139)" stroke-width="1.51"/><path d="M23,443L38,485L72,471Z" fill="rgb(194,175,124)" stroke="rgb(194,175,124)" stroke-width="1.51"/><path d="M-42,419L23,443L-17,383Z" fill="rgb(190,173,117)" stroke="rgb(190,173,117)" stroke-width="1.51"/><path d="M-17,383L-37,338L-73,385Z" fill="rgb(190,171,117)" stroke="rgb(190,171,117)" stroke-width="1.51"/><path d="M577,-38L538,-94L519,-7Z" fill="rgb(190,170,117)" stroke="rgb(190,170,117)" stroke-width="1.51"/><path d="M481,-86L538,-94L440,-91Z" fill="rgb(190,168,117)" stroke="rgb(190,168,117)" stroke-width="1.51"/><path d="M440,-91L538,-94L121,-94Z" fill="rgb(191,167,118)" stroke="rgb(191,167,118)" stroke-width="1.51"/><path d="M634,307L642,264L566,268Z" fill="rgb(204,166,147)" stroke="rgb(204,166,147)" stroke-width="1.51"/><path d="M506,439L564,392L531,380Z" fill="rgb(204,170,147)" stroke="rgb(204,170,147)" stroke-width="1.51"/><path d="M575,421L564,392L506,439Z" fill="rgb(204,171,147)" stroke="rgb(204,171,147)" stroke-width="1.51"/><path d="M-73,385L-37,338L-65,319Z" fill="rgb(190,169,117)" stroke="rgb(190,169,117)" stroke-width="1.51"/><path d="M-90,280L-73,385L-65,319Z" fill="rgb(190,168,117)" stroke="rgb(190,168,117)" stroke-width="1.51"/><path d="M577,-38L579,-65L538,-94Z" fill="rgb(190,171,117)" stroke="rgb(190,171,117)" stroke-width="1.51"/><path d="M629,-63L579,-65L577,-38Z" fill="rgb(190,173,117)" stroke="rgb(190,173,117)" stroke-width="1.51"/><path d="M625,168L667,120L619,114Z" fill="rgb(210,182,152)" stroke="rgb(210,182,152)" stroke-width="1.51"/><path d="M624,228L659,236L625,168Z" fill="rgb(207,172,149)" stroke="rgb(207,172,149)" stroke-width="1.51"/><path d="M634,307L566,268L569,341Z" fill="rgb(204,167,147)" stroke="rgb(204,167,147)" stroke-width="1.51"/><path d="M-34,-76L-76,-71L-81,-23Z" fill="rgb(175,172,85)" stroke="rgb(175,172,85)" stroke-width="1.51"/><path d="M58,-89L-76,-71L-34,-76Z" fill="rgb(175,172,85)" stroke="rgb(175,172,85)" stroke-width="1.51"/><path d="M617,372L634,307L569,341Z" fill="rgb(204,169,147)" stroke="rgb(204,169,147)" stroke-width="1.51"/><path d="M564,392L617,372L569,341Z" fill="rgb(204,171,147)" stroke="rgb(204,171,147)" stroke-width="1.51"/><path d="M561,460L575,421L506,439Z" fill="rgb(204,171,147)" stroke="rgb(204,171,147)" stroke-width="1.51"/><path d="M671,260L659,236L642,264Z" fill="rgb(205,167,148)" stroke="rgb(205,167,148)" stroke-width="1.51"/><path d="M642,264L659,236L624,228Z" fill="rgb(205,168,148)" stroke="rgb(205,168,148)" stroke-width="1.51"/><path d="M-73,385L-70,427L-42,419Z" fill="rgb(190,173,117)" stroke="rgb(190,173,117)" stroke-width="1.51"/><path d="M-42,419L-18,490L23,443Z" fill="rgb(190,173,117)" stroke="rgb(190,173,117)" stroke-width="1.51"/><path d="M-87,471L-70,427L-73,385Z" fill="rgb(190,173,117)" stroke="rgb(190,173,117)" stroke-width="1.51"/><path d="M621,57L642,9L559,24Z" fill="rgb(194,175,125)" stroke="rgb(194,175,125)" stroke-width="1.51"/><path d="M689,175L667,120L625,168Z" fill="rgb(208,179,151)" stroke="rgb(208,179,151)" stroke-width="1.51"/><path d="M684,41L642,9L621,57Z" fill="rgb(195,175,126)" stroke="rgb(195,175,126)" stroke-width="1.51"/><path d="M575,421L617,372L564,392Z" fill="rgb(204,172,147)" stroke="rgb(204,172,147)" stroke-width="1.51"/><path d="M634,307L671,260L642,264Z" fill="rgb(204,165,147)" stroke="rgb(204,165,147)" stroke-width="1.51"/><path d="M-70,427L-18,490L-42,419Z" fill="rgb(190,173,117)" stroke="rgb(190,173,117)" stroke-width="1.51"/><path d="M38,485L-18,490L208,492Z" fill="rgb(198,176,130)" stroke="rgb(198,176,130)" stroke-width="1.51"/><path d="M575,421L638,407L617,372Z" fill="rgb(204,173,147)" stroke="rgb(204,173,147)" stroke-width="1.51"/><path d="M463,486L531,488L506,439Z" fill="rgb(204,169,147)" stroke="rgb(204,169,147)" stroke-width="1.51"/><path d="M208,492L531,488L463,486Z" fill="rgb(204,165,147)" stroke="rgb(204,165,147)" stroke-width="1.51"/><path d="M531,488L561,460L506,439Z" fill="rgb(204,170,147)" stroke="rgb(204,170,147)" stroke-width="1.51"/><path d="M659,236L689,175L625,168Z" fill="rgb(207,174,150)" stroke="rgb(207,174,150)" stroke-width="1.51"/><path d="M689,307L671,260L634,307Z" fill="rgb(204,166,147)" stroke="rgb(204,166,147)" stroke-width="1.51"/><path d="M579,-65L629,-63L538,-94Z" fill="rgb(190,172,117)" stroke="rgb(190,172,117)" stroke-width="1.51"/><path d="M642,9L640,-27L577,-38Z" fill="rgb(190,173,117)" stroke="rgb(190,173,117)" stroke-width="1.51"/><path d="M675,-40L640,-27L642,9Z" fill="rgb(190,173,117)" stroke="rgb(190,173,117)" stroke-width="1.51"/><path d="M671,260L689,175L659,236Z" fill="rgb(206,170,149)" stroke="rgb(206,170,149)" stroke-width="1.51"/><path d="M667,120L688,67L621,57Z" fill="rgb(202,179,138)" stroke="rgb(202,179,138)" stroke-width="1.51"/><path d="M640,-27L629,-63L577,-38Z" fill="rgb(190,173,117)" stroke="rgb(190,173,117)" stroke-width="1.51"/><path d="M689,175L688,67L667,120Z" fill="rgb(208,181,149)" stroke="rgb(208,181,149)" stroke-width="1.51"/><path d="M640,-27L675,-40L629,-63Z" fill="rgb(190,173,117)" stroke="rgb(190,173,117)" stroke-width="1.51"/><path d="M688,67L684,41L621,57Z" fill="rgb(198,177,131)" stroke="rgb(198,177,131)" stroke-width="1.51"/><path d="M681,375L689,307L634,307Z" fill="rgb(204,169,147)" stroke="rgb(204,169,147)" stroke-width="1.51"/><path d="M625,456L638,407L575,421Z" fill="rgb(204,173,147)" stroke="rgb(204,173,147)" stroke-width="1.51"/><path d="M625,456L575,421L561,460Z" fill="rgb(204,173,147)" stroke="rgb(204,173,147)" stroke-width="1.51"/><path d="M-70,427L-87,471L-18,490Z" fill="rgb(190,173,117)" stroke="rgb(190,173,117)" stroke-width="1.51"/><path d="M-90,280L-87,471L-73,385Z" fill="rgb(190,171,117)" stroke="rgb(190,171,117)" stroke-width="1.51"/><path d="M681,375L634,307L617,372Z" fill="rgb(204,170,147)" stroke="rgb(204,170,147)" stroke-width="1.51"/><path d="M671,260L689,307L689,175Z" fill="rgb(205,167,148)" stroke="rgb(205,167,148)" stroke-width="1.51"/><path d="M691,-82L675,-40L684,41Z" fill="rgb(190,173,117)" stroke="rgb(190,173,117)" stroke-width="1.51"/><path d="M684,41L675,-40L642,9Z" fill="rgb(191,173,118)" stroke="rgb(191,173,118)" stroke-width="1.51"/><path d="M638,407L681,375L617,372Z" fill="rgb(204,172,147)" stroke="rgb(204,172,147)" stroke-width="1.51"/><path d="M531,488L625,456L561,460Z" fill="rgb(204,172,147)" stroke="rgb(204,172,147)" stroke-width="1.51"/><path d="M678,409L681,375L638,407Z" fill="rgb(204,173,147)" stroke="rgb(204,173,147)" stroke-width="1.51"/><path d="M656,464L678,409L638,407Z" fill="rgb(204,173,147)" stroke="rgb(204,173,147)" stroke-width="1.51"/><path d="M681,375L678,409L689,307Z" fill="rgb(204,171,147)" stroke="rgb(204,171,147)" stroke-width="1.51"/><path d="M625,456L656,464L638,407Z" fill="rgb(204,173,147)" stroke="rgb(204,173,147)" stroke-width="1.51"/><path d="M531,488L656,464L625,456Z" fill="rgb(204,173,147)" stroke="rgb(204,173,147)" stroke-width="1.51"/><path d="M675,-40L691,-82L629,-63Z" fill="rgb(190,173,117)" stroke="rgb(190,173,117)" stroke-width="1.51"/><path d="M629,-63L691,-82L538,-94Z" fill="rgb(190,173,117)" stroke="rgb(190,173,117)" stroke-width="1.51"/><path d="M688,67L691,-82L684,41Z" fill="rgb(192,173,119)" stroke="rgb(192,173,119)" stroke-width="1.51"/><path d="M689,175L691,-82L688,67Z" fill="rgb(198,177,131)" stroke="rgb(198,177,131)" stroke-width="1.51"/><path d="M689,307L691,-82L689,175Z" fill="rgb(210,182,152)" stroke="rgb(210,182,152)" stroke-width="1.51"/></svg>